# Blender v2.80 (sub 75) OBJ File: 'Structures.blend'
# www.blender.org
o Cube.001_Cube.003
v -1.200000 3.132280 3.000000
v -1.500000 3.132280 3.800000
v -1.125000 3.382280 3.403158
v -0.900000 3.382280 3.163158
v -1.231397 3.031554 4.230548
v -1.200000 0.882280 3.000000
v -1.500000 0.882280 3.800000
v -1.500000 2.007280 3.800000
v -1.200000 2.007280 3.000000
v -1.125000 0.632280 3.403158
v -0.900000 0.632280 3.163158
v -1.231397 0.983006 4.230548
v -1.231397 2.007280 4.230548
v -0.200000 0.507280 4.046410
v -0.200000 3.507280 4.046410
v -0.346410 0.507280 3.900000
v -0.346410 3.507280 3.900000
v -0.400000 0.507280 3.700000
v -0.400000 3.507280 3.700000
v -0.346410 0.507280 3.500000
v -0.346410 3.507280 3.500000
v -0.200000 0.507280 3.353590
v -0.200000 3.507280 3.353590
v -0.224198 3.507280 4.088323
v -0.388323 3.507280 3.924198
v -0.448397 3.507280 3.700000
v -0.388323 3.507280 3.475802
v -0.224198 3.507280 3.311677
v -0.224198 3.725420 4.088323
v -0.388323 3.725420 3.924198
v -0.448397 3.725420 3.700000
v -0.388323 3.725420 3.475802
v -0.224198 3.725420 3.311677
v -0.900000 0.507280 4.300000
v -0.900000 3.507280 4.300000
v -1.100000 0.507280 4.246410
v -1.100000 3.507280 4.246410
v -1.246410 0.507280 4.100000
v -1.246410 3.507280 4.100000
v -1.300000 0.507280 3.900000
v -1.300000 3.507280 3.900000
v -1.246410 0.507280 3.700000
v -1.246410 3.507280 3.700000
v -1.100000 0.507280 3.553590
v -1.100000 3.507280 3.553590
v -0.900000 0.507280 3.500000
v -0.900000 3.507280 3.500000
v -0.700000 0.507280 3.553590
v -0.700000 3.507280 3.553590
v -0.553590 0.507280 3.700000
v -0.553590 3.507280 3.700000
v -0.500000 0.507280 3.900000
v -0.500000 3.507280 3.900000
v -0.553590 0.507280 4.100000
v -0.553590 3.507280 4.100000
v -0.700000 0.507280 4.246410
v -0.700000 3.507280 4.246410
v -1.124198 3.507280 4.288323
v -0.900000 3.507280 4.348397
v -1.288323 3.507280 4.124198
v -1.348397 3.507280 3.900000
v -1.288323 3.507280 3.675802
v -1.124198 3.507280 3.511677
v -0.900000 3.507280 3.451603
v -0.675802 3.507280 3.511677
v -0.511677 3.507280 3.675802
v -0.451603 3.507280 3.900000
v -0.511677 3.507280 4.124198
v -0.675801 3.507280 4.288322
v -1.124198 3.725420 4.288323
v -0.900000 3.725420 4.348397
v -1.288323 3.725420 4.124198
v -1.348397 3.725420 3.900000
v -1.288323 3.725420 3.675802
v -1.124198 3.725420 3.511677
v -0.900000 3.725420 3.451603
v -0.675802 3.725420 3.511677
v -0.511677 3.725420 3.675802
v -0.451603 3.725420 3.900000
v -0.511677 3.725420 4.124198
v -0.675801 3.725420 4.288322
v 1.200000 3.132280 3.000000
v 1.500000 3.132280 3.800000
v 1.125000 3.382280 3.403158
v 0.900000 3.382280 3.163158
v 1.231397 3.031554 4.230548
v 1.200000 0.882280 3.000000
v 1.500000 0.882280 3.800000
v 1.500000 2.007280 3.800000
v 1.200000 2.007280 3.000000
v 1.125000 0.632280 3.403158
v 0.900000 0.632280 3.163158
v 1.231397 0.983006 4.230548
v 1.231397 2.007280 4.230548
v 0.000000 0.507280 4.100000
v 0.000000 3.507280 4.100000
v 0.200000 0.507280 4.046410
v 0.200000 3.507280 4.046410
v 0.346410 0.507280 3.900000
v 0.346410 3.507280 3.900000
v 0.400000 0.507280 3.700000
v 0.400000 3.507280 3.700000
v 0.346410 0.507280 3.500000
v 0.346410 3.507280 3.500000
v 0.200000 0.507280 3.353590
v 0.200000 3.507280 3.353590
v 0.000000 0.507280 3.300000
v 0.000000 3.507280 3.300000
v 0.224198 3.507280 4.088323
v 0.000000 3.507280 4.148396
v 0.388323 3.507280 3.924198
v 0.448397 3.507280 3.700000
v 0.388323 3.507280 3.475802
v 0.224198 3.507280 3.311677
v 0.000000 3.507280 3.251603
v 0.224198 3.725420 4.088323
v 0.000000 3.725420 4.148396
v 0.388323 3.725420 3.924198
v 0.448397 3.725420 3.700000
v 0.388323 3.725420 3.475802
v 0.224198 3.725420 3.311677
v 0.000000 3.725420 3.251603
v 0.900000 0.507280 4.300000
v 0.900000 3.507280 4.300000
v 1.100000 0.507280 4.246410
v 1.100000 3.507280 4.246410
v 1.246410 0.507280 4.100000
v 1.246410 3.507280 4.100000
v 1.300000 0.507280 3.900000
v 1.300000 3.507280 3.900000
v 1.246410 0.507280 3.700000
v 1.246410 3.507280 3.700000
v 1.100000 0.507280 3.553590
v 1.100000 3.507280 3.553590
v 0.900000 0.507280 3.500000
v 0.900000 3.507280 3.500000
v 0.700000 0.507280 3.553590
v 0.700000 3.507280 3.553590
v 0.553590 0.507280 3.700000
v 0.553590 3.507280 3.700000
v 0.500000 0.507280 3.900000
v 0.500000 3.507280 3.900000
v 0.553590 0.507280 4.100000
v 0.553590 3.507280 4.100000
v 0.700000 0.507280 4.246410
v 0.700000 3.507280 4.246410
v 1.124198 3.507280 4.288323
v 0.900000 3.507280 4.348397
v 1.288323 3.507280 4.124198
v 1.348397 3.507280 3.900000
v 1.288323 3.507280 3.675802
v 1.124198 3.507280 3.511677
v 0.900000 3.507280 3.451603
v 0.675802 3.507280 3.511677
v 0.511677 3.507280 3.675802
v 0.451603 3.507280 3.900000
v 0.511677 3.507280 4.124198
v 0.675801 3.507280 4.288322
v 1.124198 3.725420 4.288323
v 0.900000 3.725420 4.348397
v 1.288323 3.725420 4.124198
v 1.348397 3.725420 3.900000
v 1.288323 3.725420 3.675802
v 1.124198 3.725420 3.511677
v 0.900000 3.725420 3.451603
v 0.675802 3.725420 3.511677
v 0.511677 3.725420 3.675802
v 0.451603 3.725420 3.900000
v 0.511677 3.725420 4.124198
v 0.675801 3.725420 4.288322
v 0.000000 3.132280 3.800000
v 0.000000 3.132280 3.000000
v 0.000000 2.007280 3.000000
v 0.000000 3.382280 3.403158
v 0.000000 3.382280 3.163158
v 0.000000 3.031554 4.230548
v 0.000000 2.007280 4.230548
v 0.000000 0.882280 3.800000
v 0.000000 0.882280 3.000000
v 0.000000 0.632280 3.403158
v 0.000000 0.632280 3.163158
v 0.000000 0.983006 4.230548
v 0.000000 2.507280 4.000000
v 0.250000 2.440293 4.000000
v 0.433013 2.257280 4.000000
v 0.500000 2.007280 4.000000
v 0.433013 1.757280 4.000000
v 0.250000 1.574267 4.000000
v 0.000000 1.507280 4.000000
v -0.250000 1.574267 4.000000
v -0.433013 1.757280 4.000000
v -0.500000 2.007280 4.000000
v -0.433013 2.257280 4.000000
v -0.250000 2.440292 4.000000
v 0.000000 2.507280 4.500000
v 0.250000 2.440293 4.500000
v 0.433013 2.257280 4.500000
v 0.500000 2.007280 4.500000
v 0.433013 1.757280 4.500000
v 0.250000 1.574267 4.500000
v 0.000000 1.507280 4.500000
v -0.250000 1.574267 4.500000
v -0.433013 1.757280 4.500000
v -0.500000 2.007280 4.500000
v -0.433013 2.257280 4.500000
v -0.250000 2.440292 4.500000
v -0.000000 2.438475 4.500000
v 0.215597 2.380705 4.500000
v 0.373426 2.222877 4.500000
v 0.431195 2.007280 4.500000
v 0.373426 1.791682 4.500000
v 0.215597 1.633854 4.500000
v 0.000000 1.576085 4.500000
v -0.215597 1.633854 4.500000
v -0.373425 1.791682 4.500000
v -0.431195 2.007280 4.500000
v -0.373426 2.222877 4.500000
v -0.215598 2.380705 4.500000
v -0.000000 2.438475 4.408617
v 0.215597 2.380705 4.408617
v 0.373426 2.222877 4.408617
v 0.431195 2.007280 4.408617
v 0.373426 1.791682 4.408617
v 0.215597 1.633854 4.408617
v 0.000000 1.576085 4.408617
v -0.215597 1.633854 4.408617
v -0.373425 1.791682 4.408617
v -0.431195 2.007280 4.408617
v -0.373426 2.222877 4.408617
v -0.215598 2.380705 4.408617
v -0.000000 2.164199 4.408618
v 0.078460 2.143176 4.408618
v 0.135896 2.085739 4.408618
v 0.156919 2.007280 4.408618
v 0.135896 1.928820 4.408618
v 0.078460 1.871384 4.408618
v 0.000000 1.850361 4.408618
v -0.078460 1.871384 4.408618
v -0.135896 1.928820 4.408618
v -0.156919 2.007280 4.408618
v -0.135896 2.085739 4.408618
v -0.078460 2.143176 4.408618
v -0.000000 2.164199 4.558618
v 0.078460 2.143176 4.558618
v 0.135896 2.085739 4.558618
v 0.156919 2.007280 4.558618
v 0.135896 1.928820 4.558618
v 0.078460 1.871384 4.558618
v 0.000000 1.850361 4.558618
v -0.078460 1.871384 4.558618
v -0.135896 1.928820 4.558618
v -0.156919 2.007280 4.558618
v -0.135896 2.085739 4.558618
v -0.078460 2.143176 4.558618
v -0.000000 2.007280 4.558617
vt 0.092197 0.889004
vt 0.092203 0.889004
vt 0.092203 0.889016
vt 0.092197 0.889016
vt 0.092203 0.889004
vt 0.092203 0.889016
vt 0.092203 0.889022
vt 0.092203 0.889022
vt 0.092197 0.888998
vt 0.092203 0.888998
vt 0.092203 0.889004
vt 0.092197 0.889004
vt 0.092203 0.888998
vt 0.092203 0.889016
vt 0.092203 0.889004
vt 0.092203 0.889016
vt 0.092203 0.889004
vt 0.092203 0.889022
vt 0.092203 0.889022
vt 0.092203 0.889004
vt 0.092203 0.888998
vt 0.092203 0.888998
vt 0.467703 0.512928
vt 0.467703 0.512952
vt 0.467699 0.512952
vt 0.467699 0.512928
vt 0.467699 0.887928
vt 0.467699 0.887952
vt 0.467695 0.887952
vt 0.467695 0.887928
vt 0.467695 0.512928
vt 0.467695 0.512952
vt 0.467691 0.512952
vt 0.467691 0.512928
vt 0.467687 0.512952
vt 0.467687 0.512928
vt 0.467683 0.512952
vt 0.467683 0.512928
vt 0.467679 0.512952
vt 0.467679 0.512928
vt 0.467687 0.512952
vt 0.467683 0.512952
vt 0.467679 0.512952
vt 0.467683 0.512952
vt 0.467679 0.512952
vt 0.467691 0.512952
vt 0.467703 0.512952
vt 0.467699 0.512952
vt 0.467695 0.512952
vt 0.467695 0.512952
vt 0.467691 0.512952
vt 0.467687 0.512952
vt 0.467703 0.512952
vt 0.467699 0.512952
vt 0.844491 0.875387
vt 0.844491 0.875411
vt 0.844487 0.875411
vt 0.844487 0.875387
vt 0.844483 0.875411
vt 0.844483 0.875387
vt 0.844480 0.875411
vt 0.844480 0.875387
vt 0.844476 0.875411
vt 0.844476 0.875387
vt 0.844472 0.875411
vt 0.844472 0.875387
vt 0.844468 0.875411
vt 0.844468 0.875387
vt 0.844464 0.875411
vt 0.844464 0.875387
vt 0.844460 0.875411
vt 0.844460 0.875387
vt 0.844456 0.875411
vt 0.844456 0.875387
vt 0.844452 0.875411
vt 0.844452 0.875387
vt 0.844476 0.875411
vt 0.844472 0.875411
vt 0.844448 0.875411
vt 0.844448 0.875387
vt 0.844444 0.875411
vt 0.844444 0.875387
vt 0.844474 0.875385
vt 0.844468 0.875411
vt 0.844472 0.875411
vt 0.844468 0.875411
vt 0.844480 0.875411
vt 0.844448 0.875411
vt 0.844444 0.875411
vt 0.844491 0.875411
vt 0.844487 0.875411
vt 0.844483 0.875411
vt 0.844452 0.875411
vt 0.844456 0.875411
vt 0.844460 0.875411
vt 0.844464 0.875411
vt 0.844461 0.875385
vt 0.844456 0.875386
vt 0.844450 0.875385
vt 0.844446 0.875381
vt 0.844444 0.875375
vt 0.844446 0.875369
vt 0.844450 0.875365
vt 0.844466 0.875369
vt 0.844467 0.875375
vt 0.844466 0.875381
vt 0.844456 0.875411
vt 0.844452 0.875411
vt 0.844448 0.875411
vt 0.844460 0.875411
vt 0.844444 0.875411
vt 0.467673 0.512926
vt 0.467667 0.512928
vt 0.467667 0.512905
vt 0.467673 0.512907
vt 0.467677 0.512911
vt 0.467678 0.512917
vt 0.467677 0.512922
vt 0.092209 0.889004
vt 0.092209 0.889004
vt 0.092197 0.889022
vt 0.092197 0.889004
vt 0.092197 0.889016
vt 0.092203 0.889016
vt 0.092203 0.889004
vt 0.092203 0.889016
vt 0.092203 0.889004
vt 0.092197 0.889004
vt 0.092203 0.889004
vt 0.092203 0.889004
vt 0.092203 0.889016
vt 0.092203 0.889004
vt 0.092203 0.889016
vt 0.092203 0.889004
vt 0.467699 0.512928
vt 0.467699 0.512952
vt 0.467695 0.512928
vt 0.467695 0.512952
vt 0.467691 0.512928
vt 0.467691 0.512952
vt 0.467687 0.512928
vt 0.467687 0.512952
vt 0.467683 0.512928
vt 0.467683 0.512952
vt 0.467683 0.512952
vt 0.467687 0.512952
vt 0.467683 0.512952
vt 0.467691 0.512952
vt 0.467699 0.512952
vt 0.467695 0.512952
vt 0.467691 0.512952
vt 0.467695 0.512952
vt 0.467687 0.512952
vt 0.467699 0.512952
vt 0.283473 0.879284
vt 0.283469 0.879284
vt 0.283469 0.879308
vt 0.283473 0.879308
vt 0.283465 0.879284
vt 0.283465 0.879308
vt 0.283461 0.879284
vt 0.283461 0.879308
vt 0.283457 0.879284
vt 0.283457 0.879308
vt 0.283453 0.879284
vt 0.283453 0.879308
vt 0.283449 0.879284
vt 0.283449 0.879308
vt 0.283445 0.879284
vt 0.283445 0.879308
vt 0.283441 0.879284
vt 0.283441 0.879308
vt 0.283437 0.879284
vt 0.283437 0.879308
vt 0.283433 0.879284
vt 0.283433 0.879308
vt 0.283453 0.879308
vt 0.283457 0.879308
vt 0.283429 0.879284
vt 0.283429 0.879308
vt 0.283425 0.879284
vt 0.283425 0.879308
vt 0.283455 0.879282
vt 0.283451 0.879278
vt 0.283451 0.879267
vt 0.283455 0.879263
vt 0.283461 0.879261
vt 0.283449 0.879308
vt 0.283449 0.879308
vt 0.283453 0.879308
vt 0.283461 0.879308
vt 0.283425 0.879308
vt 0.283429 0.879308
vt 0.283469 0.879308
vt 0.283473 0.879308
vt 0.283465 0.879308
vt 0.283433 0.879308
vt 0.283437 0.879308
vt 0.283441 0.879308
vt 0.283445 0.879308
vt 0.283443 0.879282
vt 0.283447 0.879278
vt 0.283448 0.879272
vt 0.283447 0.879267
vt 0.283443 0.879263
vt 0.283431 0.879263
vt 0.283427 0.879267
vt 0.283426 0.879272
vt 0.283427 0.879278
vt 0.283431 0.879282
vt 0.283437 0.879284
vt 0.283461 0.879308
vt 0.283465 0.879308
vt 0.283457 0.879308
vt 0.283469 0.879308
vt 0.283473 0.879308
vt 0.467673 0.512926
vt 0.467677 0.512922
vt 0.467678 0.512917
vt 0.467677 0.512911
vt 0.467673 0.512907
vt 0.154374 0.668677
vt 0.154374 0.668677
vt 0.154374 0.668677
vt 0.154374 0.668677
vt 0.154374 0.668677
vt 0.154374 0.668677
vt 0.154374 0.668677
vt 0.154374 0.668677
vt 0.154374 0.668677
vt 0.154374 0.668677
vt 0.154374 0.668677
vt 0.154374 0.668677
vt 0.154374 0.668677
vt 0.154374 0.668677
vt 0.154374 0.668677
vt 0.154374 0.668677
vt 0.154374 0.668677
vt 0.154374 0.668677
vt 0.154374 0.668677
vt 0.154374 0.668677
vt 0.154374 0.668677
vt 0.154374 0.668677
vt 0.154374 0.668677
vt 0.154374 0.668677
vt 0.154374 0.668677
vt 0.154374 0.668677
vt 0.154374 0.668677
vt 0.154374 0.668677
vt 0.154374 0.668677
vt 0.154374 0.668677
vt 0.154374 0.668677
vt 0.154374 0.668677
vt 0.154374 0.668677
vt 0.154374 0.668677
vt 0.154374 0.668677
vt 0.154374 0.668677
vt 0.154374 0.668677
vt 0.154374 0.668677
vt 0.154374 0.668677
vt 0.154374 0.668677
vt 0.154374 0.668677
vt 0.154374 0.668677
vt 0.154374 0.668677
vt 0.154374 0.668677
vt 0.154374 0.668677
vt 0.154374 0.668677
vt 0.154374 0.668677
vt 0.154374 0.668677
vt 0.154374 0.668677
vt 0.154374 0.668677
vt 0.154374 0.668677
vt 0.154374 0.668677
vt 0.154374 0.668677
vt 0.154374 0.668677
vt 0.154374 0.668677
vt 0.154374 0.668677
vt 0.154374 0.668677
vt 0.154374 0.668677
vt 0.154374 0.668677
vt 0.154374 0.668677
vt 0.154374 0.668677
vt 0.154374 0.668677
vt 0.154374 0.668677
vt 0.154374 0.668677
vt 0.154374 0.668677
vt 0.154374 0.668677
vt 0.154374 0.668677
vt 0.154374 0.668677
vt 0.154374 0.668677
vt 0.154374 0.668677
vt 0.154374 0.668677
vt 0.154374 0.668677
vt 0.154374 0.668677
vn -0.9363 0.0000 -0.3511
vn -0.6330 0.7052 -0.3195
vn 0.0000 0.5465 -0.8374
vn 0.0000 0.0000 1.0000
vn -0.8484 0.0000 0.5293
vn 0.0000 0.9737 0.2278
vn -0.6330 -0.7052 -0.3195
vn 0.0000 -0.5465 -0.8374
vn 0.0000 -0.9737 0.2278
vn -0.2588 0.0000 0.9659
vn -0.7071 0.0000 0.7071
vn -0.9659 0.0000 0.2588
vn -0.9659 0.0000 -0.2588
vn -0.7071 0.0000 -0.7071
vn -0.2588 0.0000 -0.9659
vn 0.0000 -1.0000 0.0000
vn 0.2588 0.0000 -0.9659
vn 0.7071 0.0000 -0.7071
vn 0.9659 0.0000 -0.2588
vn 0.9659 0.0000 0.2588
vn 0.7071 0.0000 0.7071
vn 0.2588 0.0000 0.9659
vn 0.0000 1.0000 -0.0000
vn 0.0000 -0.8461 0.5330
vn 0.0000 0.0000 -1.0000
vn 0.0000 0.8461 0.5330
vn 0.9363 0.0000 -0.3511
vn 0.6330 0.7052 -0.3195
vn 0.8484 0.0000 0.5293
vn 0.6330 -0.7052 -0.3195
vn 0.9659 -0.2588 0.0000
vn -0.7071 0.7071 0.0000
vn 0.2588 0.9659 0.0000
vn -0.7071 -0.7071 0.0000
vn 0.7071 -0.7071 0.0000
vn -0.2588 0.9659 0.0000
vn 0.7071 0.7071 0.0000
vn -0.9659 -0.2588 0.0000
vn 0.2588 -0.9659 0.0000
vn 0.9659 0.2588 0.0000
vn -0.9659 0.2588 0.0000
vn -0.2588 -0.9659 0.0000
s off
f 8/1/1 2/2/1 1/3/1 9/4/1
f 1/3/2 2/2/2 3/5/2 4/6/2
f 172/7/3 1/3/3 4/6/3 175/8/3
f 177/9/4 176/10/4 5/11/4 13/12/4
f 2/2/5 8/1/5 13/12/5 5/11/5
f 171/13/6 2/2/6 5/11/6 176/10/6
f 8/1/1 9/4/1 6/14/1 7/15/1
f 6/14/7 11/16/7 10/17/7 7/15/7
f 179/18/8 181/19/8 11/16/8 6/14/8
f 177/9/4 13/12/4 12/20/4 182/21/4
f 7/15/5 12/20/5 13/12/5 8/1/5
f 178/22/9 182/21/9 12/20/9 7/15/9
f 95/23/10 96/24/10 15/25/10 14/26/10
f 14/27/11 15/28/11 17/29/11 16/30/11
f 16/31/12 17/32/12 19/33/12 18/34/12
f 18/34/13 19/33/13 21/35/13 20/36/13
f 20/36/14 21/35/14 23/37/14 22/38/14
f 22/38/15 23/37/15 108/39/15 107/40/15
f 23/37/16 21/35/16 27/41/16 28/42/16
f 95/23/16 14/26/16 16/31/16 18/34/16 20/36/16 22/38/16 107/40/16
f 115/43/15 28/42/15 33/44/15 122/45/15
f 21/35/16 19/33/16 26/46/16 27/41/16
f 15/25/16 96/24/16 110/47/16 24/48/16
f 19/33/16 17/32/16 25/49/16 26/46/16
f 17/32/16 15/25/16 24/48/16 25/49/16
f 108/39/16 23/37/16 28/42/16 115/43/16
f 26/46/12 25/49/12 30/50/12 31/51/12
f 27/41/13 26/46/13 31/51/13 32/52/13
f 24/48/10 110/47/10 117/53/10 29/54/10
f 28/42/14 27/41/14 32/52/14 33/44/14
f 25/49/11 24/48/11 29/54/11 30/50/11
f 34/55/10 35/56/10 37/57/10 36/58/10
f 36/58/11 37/57/11 39/59/11 38/60/11
f 38/60/12 39/59/12 41/61/12 40/62/12
f 40/62/13 41/61/13 43/63/13 42/64/13
f 42/64/14 43/63/14 45/65/14 44/66/14
f 44/66/15 45/65/15 47/67/15 46/68/15
f 46/68/17 47/67/17 49/69/17 48/70/17
f 48/70/18 49/69/18 51/71/18 50/72/18
f 50/72/19 51/71/19 53/73/19 52/74/19
f 52/74/20 53/73/20 55/75/20 54/76/20
f 45/65/16 43/63/16 62/77/16 63/78/16
f 54/76/21 55/75/21 57/79/21 56/80/21
f 56/80/22 57/79/22 35/81/22 34/82/22
f 34/55/16 36/58/16 38/60/16 40/62/16 42/64/16 44/66/16 46/68/16 48/70/16 50/72/16 52/74/16 54/76/16 56/83/16
f 64/84/15 63/78/15 75/85/15 76/86/15
f 43/63/16 41/61/16 61/87/16 62/77/16
f 35/81/16 57/79/16 69/88/16 59/89/16
f 37/57/16 35/56/16 59/90/16 58/91/16
f 41/61/16 39/59/16 60/92/16 61/87/16
f 57/79/16 55/75/16 68/93/16 69/88/16
f 39/59/16 37/57/16 58/91/16 60/92/16
f 55/75/16 53/73/16 67/94/16 68/93/16
f 53/73/16 51/71/16 66/95/16 67/94/16
f 51/71/16 49/69/16 65/96/16 66/95/16
f 49/69/16 47/67/16 64/84/16 65/96/16
f 47/67/16 45/65/16 63/78/16 64/84/16
f 70/97/23 71/98/23 81/99/23 80/100/23 79/101/23 78/102/23 77/103/23 76/86/23 75/85/23 74/104/23 73/105/23 72/106/23
f 61/87/12 60/92/12 72/106/12 73/105/12
f 68/93/20 67/94/20 79/107/20 80/108/20
f 65/96/17 64/84/17 76/86/17 77/103/17
f 62/77/13 61/87/13 73/105/13 74/104/13
f 69/88/21 68/93/21 80/108/21 81/109/21
f 58/91/10 59/90/10 71/98/10 70/97/10
f 66/95/18 65/96/18 77/103/18 78/110/18
f 63/78/14 62/77/14 74/104/14 75/85/14
f 59/89/22 69/88/22 81/109/22 71/111/22
f 60/92/11 58/91/11 70/97/11 72/106/11
f 67/94/19 66/95/19 78/110/19 79/107/19
f 29/112/23 117/113/23 122/114/23 33/115/23 32/116/23 31/117/23 30/118/23
f 10/17/16 11/16/16 181/19/16 180/119/16
f 7/15/24 10/17/24 180/119/24 178/22/24
f 3/5/23 174/120/23 175/8/23 4/6/23
f 9/4/25 173/121/25 179/18/25 6/14/25
f 9/4/25 1/3/25 172/7/25 173/121/25
f 2/2/26 171/13/26 174/120/26 3/5/26
f 89/122/27 90/123/27 82/124/27 83/125/27
f 82/124/28 85/126/28 84/127/28 83/125/28
f 172/7/3 175/8/3 85/126/3 82/124/3
f 177/9/4 94/128/4 86/129/4 176/10/4
f 83/125/29 86/129/29 94/128/29 89/122/29
f 171/13/6 176/10/6 86/129/6 83/125/6
f 89/122/27 88/130/27 87/131/27 90/123/27
f 87/131/30 88/130/30 91/132/30 92/133/30
f 179/18/8 87/131/8 92/133/8 181/19/8
f 177/9/4 182/21/4 93/134/4 94/128/4
f 88/130/29 89/122/29 94/128/29 93/134/29
f 178/22/9 88/130/9 93/134/9 182/21/9
f 95/23/22 97/135/22 98/136/22 96/24/22
f 97/135/21 99/137/21 100/138/21 98/136/21
f 99/137/20 101/139/20 102/140/20 100/138/20
f 101/139/19 103/141/19 104/142/19 102/140/19
f 103/141/18 105/143/18 106/144/18 104/142/18
f 105/143/17 107/40/17 108/39/17 106/144/17
f 106/144/16 114/145/16 113/146/16 104/142/16
f 95/23/16 107/40/16 105/143/16 103/141/16 101/139/16 99/137/16 97/135/16
f 115/43/17 122/45/17 121/147/17 114/145/17
f 104/142/16 113/146/16 112/148/16 102/140/16
f 98/136/16 109/149/16 110/47/16 96/24/16
f 102/140/16 112/148/16 111/150/16 100/138/16
f 100/138/16 111/150/16 109/149/16 98/136/16
f 108/39/16 115/43/16 114/145/16 106/144/16
f 112/148/20 119/151/20 118/152/20 111/150/20
f 113/146/19 120/153/19 119/151/19 112/148/19
f 109/149/22 116/154/22 117/53/22 110/47/22
f 114/145/18 121/147/18 120/153/18 113/146/18
f 111/150/21 118/152/21 116/154/21 109/149/21
f 123/155/22 125/156/22 126/157/22 124/158/22
f 125/156/21 127/159/21 128/160/21 126/157/21
f 127/159/20 129/161/20 130/162/20 128/160/20
f 129/161/19 131/163/19 132/164/19 130/162/19
f 131/163/18 133/165/18 134/166/18 132/164/18
f 133/165/17 135/167/17 136/168/17 134/166/17
f 135/167/15 137/169/15 138/170/15 136/168/15
f 137/169/14 139/171/14 140/172/14 138/170/14
f 139/171/13 141/173/13 142/174/13 140/172/13
f 141/173/12 143/175/12 144/176/12 142/174/12
f 134/166/16 152/177/16 151/178/16 132/164/16
f 143/175/11 145/179/11 146/180/11 144/176/11
f 145/179/10 123/181/10 124/182/10 146/180/10
f 123/155/16 145/183/16 143/184/16 141/173/16 139/185/16 137/186/16 135/187/16 133/165/16 131/163/16 129/161/16 127/159/16 125/156/16
f 153/188/17 165/189/17 164/190/17 152/177/17
f 132/164/16 151/178/16 150/191/16 130/162/16
f 124/182/16 148/192/16 158/193/16 146/180/16
f 126/157/16 147/194/16 148/195/16 124/158/16
f 130/162/16 150/191/16 149/196/16 128/160/16
f 146/180/16 158/193/16 157/197/16 144/176/16
f 128/160/16 149/196/16 147/194/16 126/157/16
f 144/176/16 157/197/16 156/198/16 142/174/16
f 142/174/16 156/198/16 155/199/16 140/172/16
f 140/172/16 155/199/16 154/200/16 138/170/16
f 138/170/16 154/200/16 153/188/16 136/168/16
f 136/168/16 153/188/16 152/177/16 134/166/16
f 159/201/23 161/202/23 162/203/23 163/204/23 164/205/23 165/189/23 166/206/23 167/207/23 168/208/23 169/209/23 170/210/23 160/211/23
f 150/191/20 162/212/20 161/213/20 149/196/20
f 157/197/12 169/209/12 168/208/12 156/198/12
f 154/200/15 166/206/15 165/189/15 153/188/15
f 151/178/19 163/214/19 162/212/19 150/191/19
f 158/193/11 170/210/11 169/209/11 157/197/11
f 147/194/22 159/215/22 160/216/22 148/195/22
f 155/199/14 167/207/14 166/206/14 154/200/14
f 152/177/18 164/190/18 163/214/18 151/178/18
f 148/192/10 160/211/10 170/210/10 158/193/10
f 149/196/21 161/213/21 159/215/21 147/194/21
f 156/198/13 168/208/13 167/207/13 155/199/13
f 116/217/23 118/218/23 119/219/23 120/220/23 121/221/23 122/114/23 117/113/23
f 91/132/16 180/119/16 181/19/16 92/133/16
f 88/130/24 178/22/24 180/119/24 91/132/24
f 84/127/23 85/126/23 175/8/23 174/120/23
f 90/123/25 87/131/25 179/18/25 173/121/25
f 90/123/25 173/121/25 172/7/25 82/124/25
f 83/125/26 84/127/26 174/120/26 171/13/26
f 187/222/31 186/223/31 198/224/31 199/225/31
f 194/226/32 193/227/32 205/228/32 206/229/32
f 184/230/33 183/231/33 195/232/33 196/233/33
f 191/234/34 190/235/34 202/236/34 203/237/34
f 188/238/35 187/222/35 199/225/35 200/239/35
f 183/231/36 194/226/36 206/229/36 195/232/36
f 185/240/37 184/230/37 196/233/37 197/241/37
f 192/242/38 191/234/38 203/237/38 204/243/38
f 189/244/39 188/238/39 200/239/39 201/245/39
f 186/223/40 185/240/40 197/241/40 198/224/40
f 193/227/41 192/242/41 204/243/41 205/228/41
f 190/235/42 189/244/42 201/245/42 202/236/42
f 197/241/4 196/233/4 208/246/4 209/247/4
f 204/243/4 203/237/4 215/248/4 216/249/4
f 201/245/4 200/239/4 212/250/4 213/251/4
f 198/224/4 197/241/4 209/247/4 210/252/4
f 205/228/4 204/243/4 216/249/4 217/253/4
f 202/236/4 201/245/4 213/251/4 214/254/4
f 199/225/4 198/224/4 210/252/4 211/255/4
f 206/229/4 205/228/4 217/253/4 218/256/4
f 196/233/4 195/232/4 207/257/4 208/246/4
f 203/237/4 202/236/4 214/254/4 215/248/4
f 200/239/4 199/225/4 211/255/4 212/250/4
f 195/232/4 206/229/4 218/256/4 207/257/4
f 207/257/39 218/256/39 230/258/39 219/259/39
f 209/247/34 208/246/34 220/260/34 221/261/34
f 216/249/40 215/248/40 227/262/40 228/263/40
f 213/251/36 212/250/36 224/264/36 225/265/36
f 210/252/38 209/247/38 221/261/38 222/266/38
f 217/253/31 216/249/31 228/263/31 229/267/31
f 214/254/33 213/251/33 225/265/33 226/268/33
f 211/255/41 210/252/41 222/266/41 223/269/41
f 218/256/35 217/253/35 229/267/35 230/258/35
f 208/246/42 207/257/42 219/259/42 220/260/42
f 215/248/37 214/254/37 226/268/37 227/262/37
f 212/250/32 211/255/32 223/269/32 224/264/32
f 224/264/4 223/269/4 235/270/4 236/271/4
f 219/259/4 230/258/4 242/272/4 231/273/4
f 221/261/4 220/260/4 232/274/4 233/275/4
f 228/263/4 227/262/4 239/276/4 240/277/4
f 225/265/4 224/264/4 236/271/4 237/278/4
f 222/266/4 221/261/4 233/275/4 234/279/4
f 229/267/4 228/263/4 240/277/4 241/280/4
f 226/268/4 225/265/4 237/278/4 238/281/4
f 223/269/4 222/266/4 234/279/4 235/270/4
f 230/258/4 229/267/4 241/280/4 242/272/4
f 220/260/4 219/259/4 231/273/4 232/274/4
f 227/262/4 226/268/4 238/281/4 239/276/4
f 236/271/35 235/270/35 247/282/35 248/283/35
f 231/273/36 242/272/36 254/284/36 243/285/36
f 233/275/37 232/274/37 244/286/37 245/287/37
f 240/277/38 239/276/38 251/288/38 252/289/38
f 237/278/39 236/271/39 248/283/39 249/290/39
f 234/279/40 233/275/40 245/287/40 246/291/40
f 241/280/41 240/277/41 252/289/41 253/292/41
f 238/281/42 237/278/42 249/290/42 250/293/42
f 235/270/31 234/279/31 246/291/31 247/282/31
f 242/272/32 241/280/32 253/292/32 254/284/32
f 232/274/33 231/273/33 243/285/33 244/286/33
f 239/276/34 238/281/34 250/293/34 251/288/34
f 251/288/4 250/293/4 255/294/4
f 248/283/4 247/282/4 255/294/4
f 243/285/4 254/284/4 255/294/4
f 245/287/4 244/286/4 255/294/4
f 252/289/4 251/288/4 255/294/4
f 249/290/4 248/283/4 255/294/4
f 246/291/4 245/287/4 255/294/4
f 253/292/4 252/289/4 255/294/4
f 250/293/4 249/290/4 255/294/4
f 247/282/4 246/291/4 255/294/4
f 254/284/4 253/292/4 255/294/4
f 244/286/4 243/285/4 255/294/4
