# Blender v2.80 (sub 75) OBJ File: 'Structures.blend'
# www.blender.org
o Cooler_Cube.005
v -0.346667 -0.400000 0.939031
v -0.346667 0.400000 0.939031
v -0.346667 -0.400000 1.739031
v -0.346667 0.400000 1.739031
v -0.346667 0.304000 1.739031
v -0.346667 -0.304000 1.739031
v -0.346667 0.304000 0.939031
v -0.346667 -0.304000 0.939031
v -0.495994 -0.304000 1.663031
v -0.495994 -0.356000 1.663031
v -0.495994 -0.356000 1.015031
v -0.495994 0.356000 1.663031
v -0.495994 0.356000 1.015031
v -0.495994 -0.304000 1.015031
v -0.495994 0.304000 1.663031
v -0.495994 0.304000 1.015031
v -0.440000 0.248268 1.685035
v -0.459134 0.302388 1.625789
v -0.475355 0.280711 1.653885
v -0.486194 0.248268 1.672658
v -0.490000 0.210000 1.679250
v -0.473141 0.302388 1.611782
v -0.501237 0.280711 1.628003
v -0.520010 0.248268 1.638841
v -0.526603 0.210000 1.642648
v -0.478268 0.302388 1.592647
v -0.510711 0.280711 1.592647
v -0.532388 0.248268 1.592647
v -0.540000 0.210000 1.592647
v -0.473141 0.302388 1.573513
v -0.501237 0.280711 1.557292
v -0.520010 0.248268 1.546453
v -0.526603 0.210000 1.542647
v -0.459134 0.302388 1.559506
v -0.475355 0.280711 1.531410
v -0.486194 0.248268 1.512637
v -0.490000 0.210000 1.506045
v -0.440000 0.302388 1.554379
v -0.440000 0.280711 1.521937
v -0.440000 0.248268 1.500260
v -0.440000 0.210000 1.492647
v -0.420866 0.302388 1.559506
v -0.404645 0.280711 1.531410
v -0.393806 0.248268 1.512637
v -0.390000 0.210000 1.506045
v -0.406859 0.302388 1.573513
v -0.378763 0.280711 1.557292
v -0.359990 0.248268 1.546453
v -0.353397 0.210000 1.542647
v -0.401732 0.302388 1.592647
v -0.369289 0.280711 1.592647
v -0.347612 0.248268 1.592647
v -0.340000 0.210000 1.592647
v -0.406859 0.302388 1.611782
v -0.378763 0.280711 1.628003
v -0.359990 0.248268 1.638841
v -0.353397 0.210000 1.642648
v -0.420866 0.302388 1.625789
v -0.404645 0.280711 1.653885
v -0.393806 0.248268 1.672658
v -0.390000 0.210000 1.679250
v -0.440000 0.310000 1.592647
v -0.440000 0.302388 1.630916
v -0.440000 0.280711 1.663358
v -0.440000 0.210000 1.692647
v -0.440000 -0.280711 1.663358
v -0.440000 -0.302388 1.630916
v -0.490000 -0.210000 1.679250
v -0.486194 -0.248268 1.672658
v -0.475355 -0.280711 1.653885
v -0.459134 -0.302388 1.625789
v -0.440000 -0.310000 1.592647
v -0.526603 -0.210000 1.642648
v -0.520010 -0.248268 1.638841
v -0.501237 -0.280711 1.628003
v -0.473141 -0.302388 1.611782
v -0.540000 -0.210000 1.592647
v -0.532388 -0.248268 1.592647
v -0.510711 -0.280711 1.592647
v -0.478268 -0.302388 1.592647
v -0.526603 -0.210000 1.542647
v -0.520010 -0.248268 1.546453
v -0.501237 -0.280711 1.557292
v -0.473141 -0.302388 1.573513
v -0.490000 -0.210000 1.506045
v -0.486194 -0.248268 1.512637
v -0.475355 -0.280711 1.531410
v -0.459134 -0.302388 1.559506
v -0.440000 -0.210000 1.492647
v -0.440000 -0.248268 1.500260
v -0.440000 -0.280711 1.521937
v -0.440000 -0.302388 1.554379
v -0.390000 -0.210000 1.506045
v -0.393806 -0.248268 1.512637
v -0.404645 -0.280711 1.531410
v -0.420866 -0.302388 1.559506
v -0.353397 -0.210000 1.542647
v -0.359990 -0.248268 1.546453
v -0.378763 -0.280711 1.557292
v -0.406859 -0.302388 1.573513
v -0.340000 -0.210000 1.592647
v -0.347612 -0.248268 1.592647
v -0.369289 -0.280711 1.592647
v -0.401732 -0.302388 1.592647
v -0.353397 -0.210000 1.642648
v -0.359990 -0.248268 1.638841
v -0.378763 -0.280711 1.628003
v -0.406859 -0.302388 1.611782
v -0.390000 -0.210000 1.679250
v -0.393806 -0.248268 1.672658
v -0.404645 -0.280711 1.653885
v -0.420866 -0.302388 1.625789
v -0.440000 -0.210000 1.692647
v -0.440000 -0.248268 1.685035
v 0.100000 0.098138 1.739032
v 0.100000 -0.098138 1.739032
v -0.100000 -0.098138 1.739032
v -0.100000 0.098138 1.739032
v 0.100000 0.098138 1.604023
v 0.100000 -0.098138 1.604023
v -0.100000 -0.098138 1.604023
v -0.100000 0.098138 1.604023
v 0.293333 -0.183912 0.939031
v 0.077245 -0.400000 0.939031
v 0.077245 0.400000 0.939031
v 0.293333 0.183912 0.939031
v 0.077245 -0.400000 1.739031
v 0.293333 -0.183912 1.739031
v 0.176789 -0.218034 1.739032
v 0.293333 0.183912 1.739031
v 0.077245 0.400000 1.739031
v 0.176789 0.218034 1.739032
v -0.439947 0.356543 1.656139
v -0.454089 0.356543 1.650281
v -0.459947 0.356543 1.636139
v -0.454089 0.356543 1.621997
v -0.439947 0.356543 1.616139
v -0.425805 0.356543 1.621997
v -0.419947 0.356543 1.636139
v -0.425805 0.356543 1.650281
v -0.439947 0.386543 1.648100
v -0.454089 0.383614 1.643027
v -0.459947 0.376543 1.630780
v -0.454089 0.369471 1.618532
v -0.439947 0.366543 1.613459
v -0.425805 0.369471 1.618532
v -0.419947 0.376543 1.630780
v -0.425805 0.383614 1.643027
v -0.439947 0.408504 1.626139
v -0.454089 0.403431 1.623210
v -0.459947 0.391184 1.616139
v -0.454089 0.378936 1.609068
v -0.439947 0.373863 1.606139
v -0.425805 0.378936 1.609068
v -0.419947 0.391184 1.616139
v -0.425805 0.403431 1.623210
v -0.439947 0.416543 1.596139
v -0.454089 0.410685 1.596139
v -0.459947 0.396543 1.596139
v -0.454089 0.382400 1.596139
v -0.439947 0.376543 1.596139
v -0.425805 0.382400 1.596139
v -0.419947 0.396543 1.596139
v -0.425805 0.410685 1.596139
v -0.439947 0.416543 1.135983
v -0.454089 0.410685 1.135983
v -0.459947 0.396543 1.135983
v -0.454089 0.382400 1.135983
v -0.439947 0.376543 1.135983
v -0.425805 0.382400 1.135983
v -0.419947 0.396543 1.135983
v -0.425805 0.410685 1.135983
vt 0.093750 0.700000
vt 0.093750 0.700000
vt 0.093750 0.700000
vt 0.093750 0.700000
vt 0.093750 0.700000
vt 0.093750 0.700000
vt 0.093750 0.700000
vt 0.093750 0.700000
vt 0.093750 0.700000
vt 0.093750 0.700000
vt 0.093750 0.700000
vt 0.156250 0.700000
vt 0.156250 0.700000
vt 0.156250 0.700000
vt 0.156250 0.700000
vt 0.093750 0.700000
vt 0.093750 0.700000
vt 0.093750 0.700000
vt 0.093750 0.700000
vt 0.093750 0.700000
vt 0.093750 0.700000
vt 0.093750 0.700000
vt 0.093750 0.700000
vt 0.156250 0.700000
vt 0.156250 0.700000
vt 0.093750 0.700000
vt 0.156250 0.700000
vt 0.156250 0.700000
vt 0.156250 0.700000
vt 0.156250 0.700000
vt 0.156250 0.700000
vt 0.156250 0.700000
vt 0.156250 0.700000
vt 0.156250 0.700000
vt 0.156250 0.700000
vt 0.156250 0.700000
vt 0.281250 0.700000
vt 0.281250 0.700000
vt 0.281250 0.700000
vt 0.281250 0.700000
vt 0.281250 0.700000
vt 0.281250 0.700000
vt 0.281250 0.700000
vt 0.281250 0.700000
vt 0.281250 0.700000
vt 0.281250 0.700000
vt 0.281250 0.700000
vt 0.281250 0.700000
vt 0.281250 0.700000
vt 0.281250 0.700000
vt 0.281250 0.700000
vt 0.281250 0.700000
vt 0.281250 0.700000
vt 0.281250 0.700000
vt 0.281250 0.700000
vt 0.281250 0.700000
vt 0.281250 0.700000
vt 0.281250 0.700000
vt 0.281250 0.700000
vt 0.281250 0.700000
vt 0.281250 0.700000
vt 0.281250 0.700000
vt 0.281250 0.700000
vt 0.281250 0.700000
vt 0.281250 0.700000
vt 0.281250 0.700000
vt 0.281250 0.700000
vt 0.281250 0.700000
vt 0.281250 0.700000
vt 0.281250 0.700000
vt 0.281250 0.700000
vt 0.281250 0.700000
vt 0.281250 0.700000
vt 0.281250 0.700000
vt 0.281250 0.700000
vt 0.281250 0.700000
vt 0.281250 0.700000
vt 0.281250 0.700000
vt 0.281250 0.700000
vt 0.281250 0.700000
vt 0.281250 0.700000
vt 0.281250 0.700000
vt 0.281250 0.700000
vt 0.281250 0.700000
vt 0.281250 0.700000
vt 0.281250 0.700000
vt 0.281250 0.700000
vt 0.281250 0.700000
vt 0.281250 0.700000
vt 0.281250 0.700000
vt 0.281250 0.700000
vt 0.281250 0.700000
vt 0.281250 0.700000
vt 0.281250 0.700000
vt 0.281250 0.700000
vt 0.281250 0.700000
vt 0.281250 0.700000
vt 0.281250 0.700000
vt 0.281250 0.700000
vt 0.281250 0.700000
vt 0.281250 0.700000
vt 0.281250 0.700000
vt 0.281250 0.700000
vt 0.281250 0.700000
vt 0.281250 0.700000
vt 0.281250 0.700000
vt 0.281250 0.700000
vt 0.281250 0.700000
vt 0.281250 0.700000
vt 0.281250 0.700000
vt 0.281250 0.700000
vt 0.281250 0.700000
vt 0.281250 0.700000
vt 0.281250 0.700000
vt 0.281250 0.700000
vt 0.281250 0.700000
vt 0.281250 0.700000
vt 0.281250 0.700000
vt 0.281250 0.700000
vt 0.281250 0.700000
vt 0.281250 0.700000
vt 0.281250 0.700000
vt 0.281250 0.700000
vt 0.281250 0.700000
vt 0.281250 0.700000
vt 0.281250 0.700000
vt 0.281250 0.700000
vt 0.281250 0.700000
vt 0.281250 0.700000
vt 0.281250 0.700000
vt 0.281250 0.700000
vt 0.281250 0.700000
vt 0.281250 0.700000
vt 0.281250 0.700000
vt 0.031250 0.300000
vt 0.031250 0.300000
vt 0.031250 0.300000
vt 0.031250 0.300000
vt 0.093750 0.700000
vt 0.093750 0.700000
vt 0.031250 0.300000
vt 0.031250 0.300000
vt 0.031250 0.300000
vt 0.031250 0.300000
vt 0.906250 0.700000
vt 0.906250 0.700000
vt 0.906250 0.700000
vt 0.906250 0.700000
vt 0.906250 0.700000
vt 0.906250 0.700000
vt 0.906250 0.700000
vt 0.906250 0.700000
vt 0.906250 0.700000
vt 0.906250 0.700000
vt 0.906250 0.700000
vt 0.906250 0.700000
vt 0.906250 0.700000
vt 0.906250 0.700000
vt 0.906250 0.700000
vt 0.906250 0.700000
vt 0.906250 0.700000
vt 0.906250 0.700000
vt 0.906250 0.700000
vt 0.906250 0.700000
vt 0.906250 0.700000
vt 0.906250 0.700000
vt 0.906250 0.700000
vt 0.906250 0.700000
vt 0.906250 0.700000
vt 0.906250 0.700000
vt 0.906250 0.700000
vt 0.906250 0.700000
vt 0.906250 0.700000
vt 0.906250 0.700000
vt 0.906250 0.700000
vt 0.906250 0.700000
vt 0.906250 0.700000
vt 0.906250 0.700000
vt 0.906250 0.700000
vt 0.906250 0.700000
vt 0.906250 0.700000
vt 0.906250 0.700000
vt 0.906250 0.700000
vt 0.906250 0.700000
vn 0.0000 0.0000 -1.0000
vn 0.0000 0.0000 1.0000
vn -0.2826 -0.9592 0.0000
vn 0.0000 1.0000 0.0000
vn 1.0000 0.0000 0.0000
vn -0.4536 0.0000 -0.8912
vn -1.0000 0.0000 0.0000
vn -0.4536 0.0000 0.8912
vn -0.2826 0.9592 0.0000
vn 0.0000 -1.0000 0.0000
vn -0.2175 0.5423 0.8116
vn -0.0522 0.9794 0.1948
vn -0.2542 0.1887 0.9486
vn -0.1472 0.8224 0.5495
vn -0.1426 0.9794 0.1426
vn -0.6944 0.1887 0.6944
vn -0.4023 0.8224 0.4023
vn -0.5941 0.5423 0.5941
vn -0.9486 0.1887 0.2542
vn -0.5495 0.8224 0.1472
vn -0.8116 0.5423 0.2175
vn -0.1948 0.9794 0.0522
vn -0.8116 0.5423 -0.2175
vn -0.1948 0.9794 -0.0522
vn -0.9486 0.1887 -0.2542
vn -0.5495 0.8224 -0.1472
vn -0.5941 0.5423 -0.5941
vn -0.1426 0.9794 -0.1426
vn -0.6944 0.1887 -0.6944
vn -0.4023 0.8224 -0.4023
vn -0.2542 0.1887 -0.9486
vn -0.1472 0.8224 -0.5495
vn -0.2175 0.5423 -0.8116
vn -0.0522 0.9794 -0.1948
vn 0.2542 0.1887 -0.9486
vn 0.1472 0.8224 -0.5495
vn 0.2175 0.5423 -0.8116
vn 0.0522 0.9794 -0.1948
vn 0.5941 0.5423 -0.5941
vn 0.1426 0.9794 -0.1426
vn 0.6944 0.1887 -0.6944
vn 0.4023 0.8224 -0.4023
vn 0.8116 0.5423 -0.2175
vn 0.1948 0.9794 -0.0522
vn 0.9486 0.1887 -0.2542
vn 0.5495 0.8224 -0.1472
vn 0.9486 0.1887 0.2542
vn 0.5495 0.8224 0.1472
vn 0.8116 0.5423 0.2175
vn 0.1948 0.9794 0.0522
vn 0.4023 0.8224 0.4023
vn 0.5941 0.5423 0.5941
vn 0.1426 0.9794 0.1426
vn 0.6944 0.1887 0.6944
vn 0.2175 0.5423 0.8116
vn 0.0522 0.9794 0.1948
vn 0.2542 0.1887 0.9486
vn 0.1472 0.8224 0.5495
vn -0.1472 -0.8224 0.5495
vn -0.2542 -0.1887 0.9486
vn -0.0522 -0.9794 0.1948
vn -0.2175 -0.5423 0.8116
vn -0.1426 -0.9794 0.1426
vn -0.5941 -0.5423 0.5941
vn -0.4023 -0.8224 0.4023
vn -0.6944 -0.1887 0.6944
vn -0.8116 -0.5423 0.2175
vn -0.5495 -0.8224 0.1472
vn -0.9486 -0.1887 0.2542
vn -0.1948 -0.9794 0.0522
vn -0.5495 -0.8224 -0.1472
vn -0.9486 -0.1887 -0.2542
vn -0.1948 -0.9794 -0.0522
vn -0.8116 -0.5423 -0.2175
vn -0.6944 -0.1887 -0.6944
vn -0.1426 -0.9794 -0.1426
vn -0.5941 -0.5423 -0.5941
vn -0.4023 -0.8224 -0.4023
vn -0.0522 -0.9794 -0.1948
vn -0.2175 -0.5423 -0.8116
vn -0.1472 -0.8224 -0.5495
vn -0.2542 -0.1887 -0.9486
vn 0.1472 -0.8224 -0.5495
vn 0.2542 -0.1887 -0.9486
vn 0.0522 -0.9794 -0.1948
vn 0.2175 -0.5423 -0.8116
vn 0.4023 -0.8224 -0.4023
vn 0.6944 -0.1887 -0.6944
vn 0.1426 -0.9794 -0.1426
vn 0.5941 -0.5423 -0.5941
vn 0.1948 -0.9794 -0.0522
vn 0.8116 -0.5423 -0.2175
vn 0.5495 -0.8224 -0.1472
vn 0.9486 -0.1887 -0.2542
vn 0.1948 -0.9794 0.0522
vn 0.8116 -0.5423 0.2175
vn 0.5495 -0.8224 0.1472
vn 0.9486 -0.1887 0.2542
vn 0.4023 -0.8224 0.4023
vn 0.6944 -0.1887 0.6944
vn 0.1426 -0.9794 0.1426
vn 0.5941 -0.5423 0.5941
vn 0.1472 -0.8224 0.5495
vn 0.2542 -0.1887 0.9486
vn 0.0522 -0.9794 0.1948
vn 0.2175 -0.5423 0.8116
vn 0.2588 0.0000 -0.9659
vn 0.7071 0.0000 -0.7071
vn 0.9659 0.0000 -0.2588
vn 0.9659 0.0000 0.2588
vn 0.7071 0.0000 0.7071
vn 0.2588 0.0000 0.9659
vn -0.2588 0.0000 0.9659
vn -0.7071 0.0000 0.7071
vn -0.9659 0.0000 0.2588
vn -0.9659 0.0000 -0.2588
vn -0.2588 0.0000 -0.9659
vn -0.7071 0.0000 -0.7071
vn 0.7071 -0.7071 -0.0000
vn 0.7071 0.7071 0.0000
vn -0.3715 0.2403 0.8968
vn -0.9191 0.1020 0.3807
vn -0.9191 -0.1020 -0.3807
vn -0.3715 -0.2403 -0.8968
vn 0.3715 -0.2403 -0.8968
vn 0.9191 -0.1020 -0.3807
vn 0.9191 0.1020 0.3807
vn 0.3715 0.2403 0.8968
vn -0.3715 0.6565 0.6565
vn -0.9191 0.2787 0.2787
vn -0.9191 -0.2787 -0.2787
vn -0.3715 -0.6565 -0.6565
vn 0.3715 -0.6565 -0.6565
vn 0.9191 -0.2787 -0.2787
vn 0.9191 0.2787 0.2787
vn 0.3715 0.6565 0.6565
vn -0.3715 0.8968 0.2403
vn -0.9191 0.3807 0.1020
vn -0.9191 -0.3807 -0.1020
vn -0.3715 -0.8968 -0.2403
vn 0.3715 -0.8968 -0.2403
vn 0.9191 -0.3807 -0.1020
vn 0.9191 0.3807 0.1020
vn 0.3715 0.8968 0.2403
vn 0.9239 0.3827 0.0000
vn 0.9239 -0.3827 0.0000
vn 0.3827 -0.9239 0.0000
vn -0.3827 -0.9239 0.0000
vn -0.9239 -0.3827 0.0000
vn -0.9239 0.3827 0.0000
vn -0.3827 0.9239 0.0000
vn 0.3827 0.9239 0.0000
s off
f 1/1/1 8/2/1 7/3/1 2/4/1 125/5/1 126/6/1 123/7/1 124/8/1
f 6/9/2 3/10/2 117/11/2
f 1/12/3 3/13/3 10/14/3 11/15/3
f 4/16/4 131/17/4 125/5/4 2/4/4
f 123/7/5 126/6/5 130/18/5 128/19/5
f 129/20/2 128/19/2 130/18/2 132/21/2 115/22/2 116/23/2
f 8/24/6 1/12/6 11/15/6 14/25/6
f 6/9/7 5/26/7 7/3/7 8/2/7
f 15/27/7 12/28/7 13/29/7 16/30/7
f 10/14/7 9/31/7 14/25/7 11/15/7
f 6/32/4 8/24/4 14/25/4 9/31/4
f 2/33/6 7/34/6 16/30/6 13/29/6
f 5/35/8 4/36/8 12/28/8 15/27/8
f 4/36/9 2/33/9 13/29/9 12/28/9
f 7/34/10 5/35/10 15/27/10 16/30/10
f 3/13/8 6/32/8 9/31/8 10/14/8
f 17/37/11 64/38/11 19/39/11 20/40/11
f 63/41/12 62/42/12 18/43/12
f 65/44/13 17/37/13 20/40/13 21/45/13
f 64/38/14 63/41/14 18/43/14 19/39/14
f 18/43/15 62/42/15 22/46/15
f 21/45/16 20/40/16 24/47/16 25/48/16
f 19/39/17 18/43/17 22/46/17 23/49/17
f 20/40/18 19/39/18 23/49/18 24/47/18
f 25/48/19 24/47/19 28/50/19 29/51/19
f 23/49/20 22/46/20 26/52/20 27/53/20
f 24/47/21 23/49/21 27/53/21 28/50/21
f 22/46/22 62/42/22 26/52/22
f 28/50/23 27/53/23 31/54/23 32/55/23
f 26/52/24 62/42/24 30/56/24
f 29/51/25 28/50/25 32/55/25 33/57/25
f 27/53/26 26/52/26 30/56/26 31/54/26
f 32/55/27 31/54/27 35/58/27 36/59/27
f 30/56/28 62/42/28 34/60/28
f 33/57/29 32/55/29 36/59/29 37/61/29
f 31/54/30 30/56/30 34/60/30 35/58/30
f 37/61/31 36/59/31 40/62/31 41/63/31
f 35/58/32 34/60/32 38/64/32 39/65/32
f 36/59/33 35/58/33 39/65/33 40/62/33
f 34/60/34 62/42/34 38/64/34
f 41/63/35 40/62/35 44/66/35 45/67/35
f 39/65/36 38/64/36 42/68/36 43/69/36
f 40/62/37 39/65/37 43/69/37 44/66/37
f 38/64/38 62/42/38 42/68/38
f 44/66/39 43/69/39 47/70/39 48/71/39
f 42/68/40 62/42/40 46/72/40
f 45/67/41 44/66/41 48/71/41 49/73/41
f 43/69/42 42/68/42 46/72/42 47/70/42
f 48/71/43 47/70/43 51/74/43 52/75/43
f 46/72/44 62/42/44 50/76/44
f 49/73/45 48/71/45 52/75/45 53/77/45
f 47/70/46 46/72/46 50/76/46 51/74/46
f 53/77/47 52/75/47 56/78/47 57/79/47
f 51/74/48 50/76/48 54/80/48 55/81/48
f 52/75/49 51/74/49 55/81/49 56/78/49
f 50/76/50 62/42/50 54/80/50
f 55/81/51 54/80/51 58/82/51 59/83/51
f 56/78/52 55/81/52 59/83/52 60/84/52
f 54/80/53 62/42/53 58/82/53
f 57/79/54 56/78/54 60/84/54 61/85/54
f 60/84/55 59/83/55 64/38/55 17/37/55
f 58/82/56 62/42/56 63/41/56
f 61/85/57 60/84/57 17/37/57 65/44/57
f 59/83/58 58/82/58 63/41/58 64/38/58
f 67/86/59 66/87/59 70/88/59 71/89/59
f 114/90/60 113/91/60 68/92/60 69/93/60
f 72/94/61 67/86/61 71/89/61
f 66/87/62 114/90/62 69/93/62 70/88/62
f 72/94/63 71/89/63 76/95/63
f 70/88/64 69/93/64 74/96/64 75/97/64
f 71/89/65 70/88/65 75/97/65 76/95/65
f 69/93/66 68/92/66 73/98/66 74/96/66
f 75/97/67 74/96/67 78/99/67 79/100/67
f 76/95/68 75/97/68 79/100/68 80/101/68
f 74/96/69 73/98/69 77/102/69 78/99/69
f 72/94/70 76/95/70 80/101/70
f 80/101/71 79/100/71 83/103/71 84/104/71
f 78/99/72 77/102/72 81/105/72 82/106/72
f 72/94/73 80/101/73 84/104/73
f 79/100/74 78/99/74 82/106/74 83/103/74
f 82/106/75 81/105/75 85/107/75 86/108/75
f 72/94/76 84/104/76 88/109/76
f 83/103/77 82/106/77 86/108/77 87/110/77
f 84/104/78 83/103/78 87/110/78 88/109/78
f 72/94/79 88/109/79 92/111/79
f 87/110/80 86/108/80 90/112/80 91/113/80
f 88/109/81 87/110/81 91/113/81 92/111/81
f 86/108/82 85/107/82 89/114/82 90/112/82
f 92/111/83 91/113/83 95/115/83 96/116/83
f 90/112/84 89/114/84 93/117/84 94/118/84
f 72/94/85 92/111/85 96/116/85
f 91/113/86 90/112/86 94/118/86 95/115/86
f 96/116/87 95/115/87 99/119/87 100/120/87
f 94/118/88 93/117/88 97/121/88 98/122/88
f 72/94/89 96/116/89 100/120/89
f 95/115/90 94/118/90 98/122/90 99/119/90
f 72/94/91 100/120/91 104/123/91
f 99/119/92 98/122/92 102/124/92 103/125/92
f 100/120/93 99/119/93 103/125/93 104/123/93
f 98/122/94 97/121/94 101/126/94 102/124/94
f 72/94/95 104/123/95 108/127/95
f 103/125/96 102/124/96 106/128/96 107/129/96
f 104/123/97 103/125/97 107/129/97 108/127/97
f 102/124/98 101/126/98 105/130/98 106/128/98
f 108/127/99 107/129/99 111/131/99 112/132/99
f 106/128/100 105/130/100 109/133/100 110/134/100
f 72/94/101 108/127/101 112/132/101
f 107/129/102 106/128/102 110/134/102 111/131/102
f 112/132/103 111/131/103 66/87/103 67/86/103
f 110/134/104 109/133/104 113/91/104 114/90/104
f 72/94/105 112/132/105 67/86/105
f 111/131/106 110/134/106 114/90/106 66/87/106
f 41/63/107 45/67/107 93/117/107 89/114/107
f 49/73/108 97/121/108 93/117/108 45/67/108
f 49/73/109 53/77/109 101/126/109 97/121/109
f 53/77/110 57/79/110 105/130/110 101/126/110
f 61/85/111 109/133/111 105/130/111 57/79/111
f 65/44/112 113/91/112 109/133/112 61/85/112
f 21/45/113 68/92/113 113/91/113 65/44/113
f 21/45/114 25/48/114 73/98/114 68/92/114
f 25/48/115 29/51/115 77/102/115 73/98/115
f 33/57/116 81/105/116 77/102/116 29/51/116
f 37/61/117 41/63/117 89/114/117 85/107/117
f 37/61/118 85/107/118 81/105/118 33/57/118
f 117/135/4 116/136/4 120/137/4 121/138/4
f 132/21/2 131/17/2 4/16/2 118/139/2 115/22/2
f 5/26/2 6/9/2 117/11/2 118/139/2
f 3/10/2 127/140/2 129/20/2 116/23/2 117/11/2
f 4/16/2 5/26/2 118/139/2
f 120/137/2 119/141/2 122/142/2 121/138/2
f 115/143/10 118/144/10 122/142/10 119/141/10
f 116/136/7 115/143/7 119/141/7 120/137/7
f 118/144/5 117/135/5 121/138/5 122/142/5
f 127/140/2 128/19/2 129/20/2
f 130/18/2 131/17/2 132/21/2
f 127/140/119 124/8/119 123/7/119 128/19/119
f 125/5/120 131/17/120 130/18/120 126/6/120
f 127/140/10 3/10/10 1/1/10 124/8/10
f 133/145/121 141/146/121 142/147/121 134/148/121
f 134/148/122 142/147/122 143/149/122 135/150/122
f 135/150/123 143/149/123 144/151/123 136/152/123
f 136/152/124 144/151/124 145/153/124 137/154/124
f 137/154/125 145/153/125 146/155/125 138/156/125
f 138/156/126 146/155/126 147/157/126 139/158/126
f 139/158/127 147/157/127 148/159/127 140/160/127
f 140/160/128 148/159/128 141/146/128 133/145/128
f 141/146/129 149/161/129 150/162/129 142/147/129
f 142/147/130 150/162/130 151/163/130 143/149/130
f 143/149/131 151/163/131 152/164/131 144/151/131
f 144/151/132 152/164/132 153/165/132 145/153/132
f 145/153/133 153/165/133 154/166/133 146/155/133
f 146/155/134 154/166/134 155/167/134 147/157/134
f 147/157/135 155/167/135 156/168/135 148/159/135
f 148/159/136 156/168/136 149/161/136 141/146/136
f 149/161/137 157/169/137 158/170/137 150/162/137
f 150/162/138 158/170/138 159/171/138 151/163/138
f 151/163/139 159/171/139 160/172/139 152/164/139
f 152/164/140 160/172/140 161/173/140 153/165/140
f 153/165/141 161/173/141 162/174/141 154/166/141
f 154/166/142 162/174/142 163/175/142 155/167/142
f 155/167/143 163/175/143 164/176/143 156/168/143
f 156/168/144 164/176/144 157/169/144 149/161/144
f 164/176/145 163/175/145 171/177/145 172/178/145
f 163/175/146 162/174/146 170/179/146 171/177/146
f 162/174/147 161/173/147 169/180/147 170/179/147
f 161/173/148 160/172/148 168/181/148 169/180/148
f 160/172/149 159/171/149 167/182/149 168/181/149
f 159/171/150 158/170/150 166/183/150 167/182/150
f 158/170/151 157/169/151 165/184/151 166/183/151
f 157/169/152 164/176/152 172/178/152 165/184/152
