# Blender v2.80 (sub 75) OBJ File: 'Structures.blend'
# www.blender.org
o HandleBar_Cylinder.006
v 0.106080 0.000000 0.015000
v -0.106080 -0.000000 0.015000
v 0.106080 -0.012990 0.007500
v -0.106080 -0.012990 0.007500
v 0.106080 -0.012990 -0.007500
v -0.106080 -0.012990 -0.007500
v 0.106080 0.000000 -0.015000
v -0.106080 -0.000000 -0.015000
v 0.106080 0.012990 -0.007500
v -0.106080 0.012990 -0.007500
v 0.106080 0.012990 0.007500
v -0.106080 0.012990 0.007500
v 0.106080 0.000000 0.018000
v 0.106080 -0.015588 0.009000
v -0.106080 -0.015588 0.009000
v -0.106080 -0.000000 0.018000
v 0.106080 -0.015588 -0.009000
v -0.106080 -0.015588 -0.009000
v 0.106080 0.000000 -0.018000
v -0.106080 -0.000000 -0.018000
v 0.106080 0.015588 -0.009000
v -0.106080 0.015588 -0.009000
v 0.106080 0.015588 0.009000
v -0.106080 0.015588 0.009000
v 0.123760 0.000000 0.018000
v 0.123760 -0.015588 0.009000
v -0.123760 -0.015588 0.009000
v -0.123760 -0.000000 0.018000
v 0.123760 -0.015588 -0.009000
v -0.123760 -0.015588 -0.009000
v 0.123760 0.000000 -0.018000
v -0.123760 -0.000000 -0.018000
v 0.123760 0.015588 -0.009000
v -0.123760 0.015588 -0.009000
v 0.123760 0.015588 0.009000
v -0.123760 0.015588 0.009000
v 0.106080 0.130000 0.015000
v -0.106080 0.130000 0.015000
v 0.106080 0.117010 0.007500
v -0.106080 0.117010 0.007500
v 0.106080 0.117010 -0.007500
v -0.106080 0.117010 -0.007500
v 0.106080 0.130000 -0.015000
v -0.106080 0.130000 -0.015000
v 0.106080 0.142990 -0.007500
v -0.106080 0.142990 -0.007500
v 0.106080 0.142990 0.007500
v -0.106080 0.142990 0.007500
v 0.106080 0.130000 0.018000
v 0.106080 0.114412 0.009000
v -0.106080 0.114412 0.009000
v -0.106080 0.130000 0.018000
v 0.106080 0.114412 -0.009000
v -0.106080 0.114412 -0.009000
v 0.106080 0.130000 -0.018000
v -0.106080 0.130000 -0.018000
v 0.106080 0.145588 -0.009000
v -0.106080 0.145588 -0.009000
v 0.106080 0.145588 0.009000
v -0.106080 0.145588 0.009000
v 0.123760 0.130000 0.018000
v 0.123760 0.114412 0.009000
v -0.123760 0.114412 0.009000
v -0.123760 0.130000 0.018000
v 0.123760 0.114412 -0.009000
v -0.123760 0.114412 -0.009000
v 0.123760 0.130000 -0.018000
v -0.123760 0.130000 -0.018000
v 0.123760 0.145588 -0.009000
v -0.123760 0.145588 -0.009000
v 0.123760 0.145588 0.009000
v -0.123760 0.145588 0.009000
v 0.068264 0.117010 0.007500
v 0.033396 0.117010 0.007500
v 0.000000 0.117010 0.007500
v -0.033396 0.117010 0.007500
v -0.068264 0.117010 0.007500
v 0.068264 0.117010 -0.007500
v 0.033396 0.117010 -0.007500
v 0.000000 0.117010 -0.007500
v -0.033396 0.117010 -0.007500
v -0.068264 0.117010 -0.007500
v 0.068264 0.130000 -0.015000
v 0.033396 0.130000 -0.015000
v 0.000000 0.130000 -0.015000
v -0.033396 0.130000 -0.015000
v -0.068264 0.130000 -0.015000
v 0.068264 0.142990 -0.007500
v 0.033396 0.142990 -0.007500
v 0.000000 0.142990 -0.007500
v -0.033396 0.142990 -0.007500
v -0.068264 0.142990 -0.007500
v 0.068264 0.142990 0.007500
v 0.033396 0.142990 0.007500
v 0.000000 0.142990 0.007500
v -0.033396 0.142990 0.007500
v -0.068264 0.142990 0.007500
v -0.068264 0.130000 0.015000
v -0.033396 0.130000 0.015000
v 0.000000 0.130000 0.015000
v 0.033396 0.130000 0.015000
v 0.068264 0.130000 0.015000
v 0.103958 0.000000 0.015000
v -0.103958 -0.000000 0.015000
v 0.103958 -0.012990 0.007500
v -0.103958 -0.012990 0.007500
v 0.103958 -0.012990 -0.007500
v -0.103958 -0.012990 -0.007500
v 0.103958 0.000000 -0.015000
v -0.103958 -0.000000 -0.015000
v 0.103958 0.012990 -0.007500
v -0.103958 0.012990 -0.007500
v 0.103958 0.012990 0.007500
v -0.103958 0.012990 0.007500
vt 0.156250 0.900000
vt 0.156250 0.900000
vt 0.156250 0.900000
vt 0.156250 0.900000
vt 0.156250 0.900000
vt 0.156250 0.900000
vt 0.156250 0.900000
vt 0.156250 0.900000
vt 0.156250 0.900000
vt 0.156250 0.900000
vt 0.156250 0.900000
vt 0.156250 0.900000
vt 0.156250 0.900000
vt 0.156250 0.900000
vt 0.156250 0.900000
vt 0.156250 0.900000
vt 0.156250 0.900000
vt 0.156250 0.900000
vt 0.156250 0.900000
vt 0.156250 0.900000
vt 0.156250 0.900000
vt 0.156250 0.900000
vt 0.156250 0.900000
vt 0.156250 0.900000
vt 0.156250 0.900000
vt 0.156250 0.900000
vt 0.156250 0.900000
vt 0.156250 0.900000
vt 0.156250 0.900000
vt 0.156250 0.900000
vt 0.156250 0.900000
vt 0.156250 0.900000
vt 0.156250 0.900000
vt 0.156250 0.900000
vt 0.156250 0.900000
vt 0.156250 0.900000
vt 0.156250 0.900000
vt 0.156250 0.900000
vt 0.156250 0.900000
vt 0.093750 0.300000
vt 0.093750 0.300000
vt 0.093750 0.300000
vt 0.093750 0.300000
vt 0.093750 0.300000
vt 0.093750 0.300000
vt 0.093750 0.300000
vt 0.093750 0.300000
vt 0.093750 0.300000
vt 0.093750 0.300000
vt 0.156250 0.900000
vt 0.156250 0.900000
vt 0.156250 0.900000
vt 0.156250 0.900000
vt 0.093750 0.300000
vt 0.093750 0.300000
vt 0.156250 0.900000
vt 0.156250 0.900000
vt 0.156250 0.900000
vt 0.156250 0.900000
vt 0.156250 0.900000
vt 0.156250 0.900000
vt 0.156250 0.900000
vt 0.156250 0.900000
vt 0.156250 0.900000
vt 0.156250 0.900000
vt 0.156250 0.900000
vt 0.156250 0.900000
vt 0.156250 0.900000
vt 0.156250 0.900000
vt 0.156250 0.900000
vt 0.156250 0.900000
vt 0.156250 0.900000
vt 0.156250 0.900000
vt 0.156250 0.900000
vt 0.156250 0.900000
vt 0.156250 0.900000
vt 0.156250 0.900000
vt 0.156250 0.900000
vt 0.156250 0.900000
vt 0.156250 0.900000
vt 0.156250 0.900000
vt 0.156250 0.900000
vt 0.156250 0.900000
vt 0.156250 0.900000
vt 0.031250 0.300000
vt 0.031250 0.300000
vt 0.031250 0.300000
vt 0.031250 0.300000
vt 0.093750 0.300000
vt 0.093750 0.300000
vt 0.093750 0.300000
vt 0.093750 0.300000
vt 0.031250 0.300000
vt 0.031250 0.300000
vt 0.031250 0.300000
vt 0.031250 0.300000
vt 0.093750 0.300000
vt 0.093750 0.300000
vt 0.093750 0.300000
vt 0.093750 0.300000
vt 0.031250 0.300000
vt 0.031250 0.300000
vt 0.031250 0.300000
vt 0.031250 0.300000
vt 0.031250 0.300000
vt 0.031250 0.300000
vt 0.093750 0.300000
vt 0.093750 0.300000
vt 0.031250 0.300000
vt 0.031250 0.300000
vt 0.093750 0.300000
vt 0.093750 0.300000
vt 0.031250 0.300000
vt 0.031250 0.300000
vt 0.031250 0.300000
vt 0.031250 0.300000
vt 0.093750 0.300000
vt 0.093750 0.300000
vt 0.031250 0.300000
vt 0.031250 0.300000
vt 0.093750 0.300000
vt 0.093750 0.300000
vt 0.031250 0.300000
vt 0.031250 0.300000
vt 0.031250 0.300000
vt 0.031250 0.300000
vt 0.093750 0.300000
vt 0.093750 0.300000
vt 0.031250 0.300000
vt 0.031250 0.300000
vt 0.093750 0.300000
vt 0.093750 0.300000
vt 0.031250 0.300000
vt 0.031250 0.300000
vt 0.031250 0.300000
vt 0.031250 0.300000
vt 0.093750 0.300000
vt 0.093750 0.300000
vt 0.031250 0.300000
vt 0.031250 0.300000
vt 0.093750 0.300000
vt 0.093750 0.300000
vt 0.031250 0.300000
vt 0.031250 0.300000
vt 0.093750 0.900000
vt 0.093750 0.900000
vt 0.093750 0.900000
vt 0.093750 0.900000
vt 0.093750 0.900000
vt 0.093750 0.900000
vt 0.093750 0.900000
vt 0.093750 0.900000
vt 0.093750 0.900000
vt 0.093750 0.900000
vt 0.093750 0.900000
vt 0.093750 0.900000
vt 0.093750 0.900000
vt 0.093750 0.900000
vt 0.093750 0.900000
vt 0.093750 0.900000
vt 0.093750 0.900000
vt 0.093750 0.900000
vt 0.093750 0.900000
vt 0.093750 0.900000
vt 0.093750 0.900000
vt 0.093750 0.900000
vt 0.093750 0.900000
vt 0.093750 0.900000
vn -1.0000 0.0000 0.0000
vn 0.0000 -0.5000 -0.8660
vn 1.0000 0.0000 0.0000
vn 0.0000 -1.0000 0.0000
vn 0.0000 -0.0000 1.0000
vn 0.0000 0.5000 -0.8660
vn 0.0000 0.5000 0.8660
vn 0.0000 -0.5000 0.8660
vn 0.0000 1.0000 0.0000
vn 0.0000 -0.0000 -1.0000
s off
f 9/1/1 11/2/1 23/3/1 21/4/1
f 11/2/1 1/5/1 13/6/1 23/3/1
f 20/7/2 18/8/2 30/9/2 32/10/2
f 24/11/3 22/12/3 54/13/3 51/14/3
f 7/15/1 9/1/1 21/4/1 19/16/1
f 2/17/3 12/18/3 24/11/3 16/19/3
f 1/5/1 3/20/1 14/21/1 13/6/1
f 5/22/1 7/15/1 19/16/1 17/23/1
f 12/18/3 10/24/3 22/12/3 24/11/3
f 3/20/1 5/22/1 17/23/1 14/21/1
f 10/24/3 8/25/3 20/7/3 22/12/3
f 4/26/3 2/17/3 16/19/3 15/27/3
f 8/25/3 6/28/3 18/8/3 20/7/3
f 6/28/3 4/26/3 15/27/3 18/8/3
f 27/29/1 28/30/1 36/31/1 34/32/1 32/10/1 30/9/1
f 25/33/3 26/34/3 29/35/3 31/36/3 33/37/3 35/38/3
f 14/21/4 17/23/4 29/35/4 26/34/4
f 36/31/5 24/11/5 51/14/5 63/39/5
f 19/16/6 21/4/6 33/37/6 31/36/6
f 18/8/4 15/27/4 27/29/4 30/9/4
f 23/3/7 13/6/7 25/33/7 35/38/7
f 13/6/8 14/21/8 26/34/8 25/33/8
f 22/12/6 20/7/6 32/10/6 34/32/6
f 17/23/2 19/16/2 31/36/2 29/35/2
f 16/19/7 24/11/7 36/31/7 28/30/7
f 15/27/8 16/19/8 28/30/8 27/29/8
f 77/40/8 98/41/8 38/42/8 40/43/8
f 82/44/4 77/40/4 40/43/4 42/45/4
f 87/46/2 82/44/2 42/45/2 44/47/2
f 92/48/6 87/46/6 44/47/6 46/49/6
f 45/50/1 47/51/1 59/52/1 57/53/1
f 97/54/9 92/48/9 46/49/9 48/55/9
f 98/41/7 97/54/7 48/55/7 38/42/7
f 47/51/1 37/56/1 49/57/1 59/52/1
f 56/58/2 54/13/2 66/59/2 68/60/2
f 57/53/9 59/52/9 71/61/9 69/62/9
f 43/63/1 45/50/1 57/53/1 55/64/1
f 38/65/3 48/66/3 60/67/3 52/68/3
f 37/56/1 39/69/1 50/70/1 49/57/1
f 41/71/1 43/63/1 55/64/1 53/72/1
f 48/66/3 46/73/3 58/74/3 60/67/3
f 39/69/1 41/71/1 53/72/1 50/70/1
f 46/73/3 44/75/3 56/58/3 58/74/3
f 40/76/3 38/65/3 52/68/3 51/14/3
f 44/75/3 42/77/3 54/13/3 56/58/3
f 42/77/3 40/76/3 51/14/3 54/13/3
f 63/39/1 64/78/1 72/79/1 70/80/1 68/60/1 66/59/1
f 61/81/3 62/82/3 65/83/3 67/84/3 69/62/3 71/61/3
f 36/31/1 63/39/1 66/59/1 34/32/1
f 60/67/9 58/74/9 70/80/9 72/79/9
f 55/64/6 57/53/6 69/62/6 67/84/6
f 34/32/10 66/59/10 54/13/10 22/12/10
f 59/52/7 49/57/7 61/81/7 71/61/7
f 49/57/8 50/70/8 62/82/8 61/81/8
f 58/74/6 56/58/6 68/60/6 70/80/6
f 53/72/2 55/64/2 67/84/2 65/83/2
f 52/68/7 60/67/7 72/79/7 64/78/7
f 51/14/8 52/68/8 64/78/8 63/39/8
f 23/3/5 35/38/5 62/82/5 50/70/5
f 33/37/10 21/4/10 53/72/10 65/83/10
f 21/4/1 23/3/1 50/70/1 53/72/1
f 33/37/3 65/83/3 62/82/3 35/38/3
f 81/85/4 76/86/4 77/87/4 82/88/4
f 80/89/4 75/90/4 76/91/4 81/92/4
f 79/93/4 74/94/4 75/95/4 80/96/4
f 73/97/4 74/98/4 79/99/4 78/100/4
f 39/101/4 73/102/4 78/103/4 41/104/4
f 86/105/2 81/85/2 82/88/2 87/106/2
f 85/107/2 80/89/2 81/92/2 86/108/2
f 84/109/2 79/93/2 80/96/2 85/110/2
f 78/100/2 79/99/2 84/111/2 83/112/2
f 41/104/2 78/103/2 83/113/2 43/114/2
f 91/115/6 86/105/6 87/106/6 92/116/6
f 90/117/6 85/107/6 86/108/6 91/118/6
f 89/119/6 84/109/6 85/110/6 90/120/6
f 83/112/6 84/111/6 89/121/6 88/122/6
f 43/114/6 83/113/6 88/123/6 45/124/6
f 96/125/9 91/115/9 92/116/9 97/126/9
f 95/127/9 90/117/9 91/118/9 96/128/9
f 94/129/9 89/119/9 90/120/9 95/130/9
f 88/122/9 89/121/9 94/131/9 93/132/9
f 45/124/9 88/123/9 93/133/9 47/134/9
f 76/86/8 99/135/8 98/136/8 77/87/8
f 75/90/8 100/137/8 99/138/8 76/91/8
f 74/94/8 101/139/8 100/140/8 75/95/8
f 102/141/8 101/142/8 74/98/8 73/97/8
f 37/143/8 102/144/8 73/102/8 39/101/8
f 99/135/7 96/125/7 97/126/7 98/136/7
f 100/137/7 95/127/7 96/128/7 99/138/7
f 101/139/7 94/129/7 95/130/7 100/140/7
f 93/132/7 94/131/7 101/142/7 102/141/7
f 47/134/7 93/133/7 102/144/7 37/143/7
f 10/145/9 12/146/9 114/147/9 112/148/9
f 9/149/6 7/150/6 109/151/6 111/152/6
f 4/153/4 6/154/4 108/155/4 106/156/4
f 1/157/7 11/158/7 113/159/7 103/160/7
f 3/161/8 1/157/8 103/160/8 105/162/8
f 8/163/6 10/145/6 112/148/6 110/164/6
f 7/150/2 5/165/2 107/166/2 109/151/2
f 12/146/7 2/167/7 104/168/7 114/147/7
f 2/167/8 4/153/8 106/156/8 104/168/8
f 11/158/9 9/149/9 111/152/9 113/159/9
f 6/154/2 8/163/2 110/164/2 108/155/2
f 5/165/4 3/161/4 105/162/4 107/166/4
f 106/156/3 108/155/3 110/164/3 112/148/3 114/147/3 104/168/3
f 103/160/1 113/159/1 111/152/1 109/151/1 107/166/1 105/162/1
