# Blender v2.80 (sub 75) OBJ File: 'Structures.blend'
# www.blender.org
o Cube.003_Cube.002
v 4.238694 -2.641904 -4.238694
v 4.238694 2.656464 -4.238694
v 4.238694 -2.641904 4.238694
v 4.238694 2.656464 4.238694
v -4.238694 -2.641904 -4.238694
v -4.238694 2.656464 -4.238694
v -4.238694 -2.641904 4.238694
v -4.238694 2.656464 4.238694
v 4.238694 -2.547797 -4.662564
v 4.238694 2.220734 -4.662564
v 4.238694 2.220734 4.662564
v 4.238694 -2.547797 4.662564
v -4.238694 -2.547797 4.662564
v -4.238694 2.220734 4.662564
v -4.238694 2.220734 -4.662564
v -4.238694 -2.547797 -4.662564
vt 0.162440 0.327915
vt 0.164019 0.327915
vt 0.164019 0.329494
vt 0.162440 0.329494
vt 0.162440 0.332653
vt 0.164019 0.332653
vt 0.164019 0.332653
vt 0.162440 0.332653
vt 0.162440 0.331073
vt 0.164019 0.331073
vt 0.165599 0.332653
vt 0.165599 0.332653
vt 0.160861 0.331073
vt 0.160861 0.332653
vt 0.165599 0.331073
vt 0.162440 0.329494
vt 0.164019 0.329494
vt 0.164019 0.331073
vt 0.162440 0.331073
vt 0.164019 0.334232
vt 0.162440 0.334232
vt 0.165599 0.331073
vt 0.162440 0.327915
vt 0.164019 0.327915
vt 0.160861 0.332653
vt 0.160861 0.331073
vn 1.0000 0.0000 0.0000
vn -1.0000 0.0000 0.0000
vn 0.0000 0.6973 -0.7168
vn 0.0000 -1.0000 0.0000
vn 0.0000 1.0000 0.0000
vn 0.0000 0.0000 1.0000
vn 0.0000 0.0000 -1.0000
vn 0.0000 0.6973 0.7168
vn 0.0000 -0.9762 -0.2167
vn 0.0000 -0.9762 0.2167
s off
f 1/1/1 2/2/1 4/3/1 3/4/1
f 5/5/2 6/6/2 15/7/2 16/8/2
f 7/9/2 8/10/2 6/6/2 5/5/2
f 6/6/3 2/11/3 10/12/3 15/7/3
f 3/13/4 7/9/4 5/5/4 1/14/4
f 8/10/5 4/15/5 2/11/5 6/6/5
f 12/16/6 11/17/6 14/18/6 13/19/6
f 16/8/7 15/7/7 10/20/7 9/21/7
f 4/15/8 8/10/8 14/18/8 11/22/8
f 3/4/1 4/3/1 11/17/1 12/16/1
f 2/2/1 1/1/1 9/23/1 10/24/1
f 1/14/9 5/5/9 16/8/9 9/25/9
f 8/10/2 7/9/2 13/19/2 14/18/2
f 7/9/10 3/13/10 12/26/10 13/19/10
