# Blender v2.80 (sub 75) OBJ File: 'Structures.blend'
# www.blender.org
o Handle_Cylinder.002
v 0.000000 0.026580 0.050159
v 0.000000 0.026580 -0.000000
v -0.023019 0.013290 0.050159
v -0.023019 0.013290 -0.000000
v -0.023019 -0.013290 0.050159
v -0.023019 -0.013290 -0.000000
v 0.000000 -0.026580 0.050159
v 0.000000 -0.026580 -0.000000
v 0.023019 -0.013290 0.050159
v 0.023019 -0.013290 -0.000000
v 0.023019 0.013290 0.050159
v 0.023019 0.013290 -0.000000
v -0.029909 0.017268 0.050159
v -0.029909 -0.017268 0.050159
v 0.201016 -0.017268 0.050159
v 0.201016 0.017268 0.050159
v -0.029909 0.017268 0.067969
v -0.029909 -0.017268 0.067969
v 0.201016 -0.017268 0.067969
v 0.201016 0.017268 0.067969
v 0.175367 0.022812 0.050159
v 0.175367 -0.022812 0.050159
v 0.175367 0.022812 0.067969
v -0.004259 0.022812 0.067969
v -0.004259 -0.022812 0.067969
v 0.175367 -0.022812 0.067969
v 0.000000 0.000000 0.000000
vt 0.218750 0.700000
vt 0.218750 0.700000
vt 0.218750 0.700000
vt 0.218750 0.700000
vt 0.218750 0.700000
vt 0.218750 0.700000
vt 0.218750 0.700000
vt 0.218750 0.700000
vt 0.218750 0.700000
vt 0.218750 0.700000
vt 0.218750 0.700000
vt 0.218750 0.700000
vt 0.531250 0.300000
vt 0.531250 0.300000
vt 0.531250 0.300000
vt 0.531250 0.300000
vt 0.531250 0.300000
vt 0.531250 0.300000
vt 0.531250 0.300000
vt 0.531250 0.300000
vt 0.531250 0.300000
vt 0.531250 0.300000
vt 0.531250 0.300000
vt 0.531250 0.300000
vt 0.531250 0.300000
vt 0.531250 0.300000
vt 0.531250 0.300000
vt 0.531250 0.300000
vt 0.531250 0.300000
vt 0.531250 0.300000
vt 0.531250 0.300000
vt 0.531250 0.300000
vt 0.218750 0.700000
vn -0.5000 0.8660 -0.0000
vn -1.0000 0.0000 0.0000
vn -0.5000 -0.8660 0.0000
vn 0.5000 -0.8660 0.0000
vn 1.0000 0.0000 0.0000
vn 0.5000 0.8660 -0.0000
vn 0.0000 0.0000 -1.0000
vn 0.2113 0.9774 -0.0000
vn 0.2113 -0.9774 0.0000
vn 0.0000 0.0000 1.0000
vn -0.2577 -0.9636 0.0711
vn 0.0106 -0.9943 0.1064
vn 0.0106 0.9943 0.1064
vn -0.2577 0.9636 0.0711
s off
f 1/1/1 2/2/1 4/3/1 3/4/1
f 3/4/2 4/3/2 6/5/2 5/6/2
f 5/6/3 6/5/3 8/7/3 7/8/3
f 7/8/4 8/7/4 10/9/4 9/10/4
f 9/10/5 10/9/5 12/11/5 11/12/5
f 11/12/6 12/11/6 2/2/6 1/1/6
f 3/13/7 5/14/7 14/15/7 13/16/7
f 13/16/2 14/15/2 18/17/2 17/18/2
f 9/19/7 11/20/7 16/21/7 15/22/7
f 16/21/8 21/23/8 23/24/8 20/25/8
f 22/26/9 15/22/9 19/27/9 26/28/9
f 23/24/10 24/29/10 17/18/10 18/17/10 25/30/10 26/28/10 19/27/10 20/25/10
f 15/22/5 16/21/5 20/25/5 19/27/5
f 14/15/11 7/31/11 25/30/11 18/17/11
f 22/26/12 26/28/12 25/30/12 7/31/12
f 23/24/13 21/23/13 1/32/13 24/29/13
f 1/32/14 13/16/14 17/18/14 24/29/14
f 1/32/7 21/23/7 11/20/7
f 7/31/7 9/19/7 22/26/7
f 15/22/7 22/26/7 9/19/7
f 16/21/7 11/20/7 21/23/7
f 3/13/7 13/16/7 1/32/7
f 7/31/7 14/15/7 5/14/7
f 8/7/7 6/5/7 27/33/7
f 2/2/7 12/11/7 27/33/7
f 10/9/7 8/7/7 27/33/7
f 6/5/7 4/3/7 27/33/7
f 12/11/7 10/9/7 27/33/7
f 4/3/7 2/2/7 27/33/7
