# Blender v2.80 (sub 75) OBJ File: 'Structures.blend'
# www.blender.org
o Port_Cube.003
v -1.200000 3.132280 3.000000
v -1.500000 3.132280 3.800000
v -1.125000 3.382280 3.403158
v -0.900000 3.382280 3.163158
v -1.231397 3.031554 4.230548
v -1.200000 0.882280 3.000000
v -1.500000 0.882280 3.800000
v -1.500000 2.007280 3.800000
v -1.200000 2.007280 3.000000
v -1.125000 0.632280 3.403158
v -0.900000 0.632280 3.163158
v -1.231397 0.983006 4.230548
v -1.231397 2.007280 4.230548
v -0.200000 0.507280 4.046410
v -0.200000 3.507280 4.046410
v -0.346410 0.507280 3.900000
v -0.346410 3.507280 3.900000
v -0.400000 0.507280 3.700000
v -0.400000 3.507280 3.700000
v -0.346410 0.507280 3.500000
v -0.346410 3.507280 3.500000
v -0.200000 0.507280 3.353590
v -0.200000 3.507280 3.353590
v -0.224198 3.507280 4.088323
v -0.388323 3.507280 3.924198
v -0.448397 3.507280 3.700000
v -0.388323 3.507280 3.475802
v -0.224198 3.507280 3.311677
v -0.224198 3.725420 4.088323
v -0.388323 3.725420 3.924198
v -0.448397 3.725420 3.700000
v -0.388323 3.725420 3.475802
v -0.224198 3.725420 3.311677
v -0.900000 0.507280 4.300000
v -0.900000 3.507280 4.300000
v -1.100000 0.507280 4.246410
v -1.100000 3.507280 4.246410
v -1.246410 0.507280 4.100000
v -1.246410 3.507280 4.100000
v -1.300000 0.507280 3.900000
v -1.300000 3.507280 3.900000
v -1.246410 0.507280 3.700000
v -1.246410 3.507280 3.700000
v -1.100000 0.507280 3.553590
v -1.100000 3.507280 3.553590
v -0.900000 0.507280 3.500000
v -0.900000 3.507280 3.500000
v -0.700000 0.507280 3.553590
v -0.700000 3.507280 3.553590
v -0.553590 0.507280 3.700000
v -0.553590 3.507280 3.700000
v -0.500000 0.507280 3.900000
v -0.500000 3.507280 3.900000
v -0.553590 0.507280 4.100000
v -0.553590 3.507280 4.100000
v -0.700000 0.507280 4.246410
v -0.700000 3.507280 4.246410
v -1.124198 3.507280 4.288323
v -0.900000 3.507280 4.348397
v -1.288323 3.507280 4.124198
v -1.348397 3.507280 3.900000
v -1.288323 3.507280 3.675802
v -1.124198 3.507280 3.511677
v -0.900000 3.507280 3.451603
v -0.675802 3.507280 3.511677
v -0.511677 3.507280 3.675802
v -0.451603 3.507280 3.900000
v -0.511677 3.507280 4.124198
v -0.675801 3.507280 4.288322
v -1.124198 3.725420 4.288323
v -0.900000 3.725420 4.348397
v -1.288323 3.725420 4.124198
v -1.348397 3.725420 3.900000
v -1.288323 3.725420 3.675802
v -1.124198 3.725420 3.511677
v -0.900000 3.725420 3.451603
v -0.675802 3.725420 3.511677
v -0.511677 3.725420 3.675802
v -0.451603 3.725420 3.900000
v -0.511677 3.725420 4.124198
v -0.675801 3.725420 4.288322
v 1.200000 3.132280 3.000000
v 1.500000 3.132280 3.800000
v 1.125000 3.382280 3.403158
v 0.900000 3.382280 3.163158
v 1.231397 3.031554 4.230548
v 1.200000 0.882280 3.000000
v 1.500000 0.882280 3.800000
v 1.500000 2.007280 3.800000
v 1.200000 2.007280 3.000000
v 1.125000 0.632280 3.403158
v 0.900000 0.632280 3.163158
v 1.231397 0.983006 4.230548
v 1.231397 2.007280 4.230548
v 0.000000 0.507280 4.100000
v 0.000000 3.507280 4.100000
v 0.200000 0.507280 4.046410
v 0.200000 3.507280 4.046410
v 0.346410 0.507280 3.900000
v 0.346410 3.507280 3.900000
v 0.400000 0.507280 3.700000
v 0.400000 3.507280 3.700000
v 0.346410 0.507280 3.500000
v 0.346410 3.507280 3.500000
v 0.200000 0.507280 3.353590
v 0.200000 3.507280 3.353590
v 0.000000 0.507280 3.300000
v 0.000000 3.507280 3.300000
v 0.224198 3.507280 4.088323
v 0.000000 3.507280 4.148396
v 0.388323 3.507280 3.924198
v 0.448397 3.507280 3.700000
v 0.388323 3.507280 3.475802
v 0.224198 3.507280 3.311677
v 0.000000 3.507280 3.251603
v 0.224198 3.725420 4.088323
v 0.000000 3.725420 4.148396
v 0.388323 3.725420 3.924198
v 0.448397 3.725420 3.700000
v 0.388323 3.725420 3.475802
v 0.224198 3.725420 3.311677
v 0.000000 3.725420 3.251603
v 0.900000 0.507280 4.300000
v 0.900000 3.507280 4.300000
v 1.100000 0.507280 4.246410
v 1.100000 3.507280 4.246410
v 1.246410 0.507280 4.100000
v 1.246410 3.507280 4.100000
v 1.300000 0.507280 3.900000
v 1.300000 3.507280 3.900000
v 1.246410 0.507280 3.700000
v 1.246410 3.507280 3.700000
v 1.100000 0.507280 3.553590
v 1.100000 3.507280 3.553590
v 0.900000 0.507280 3.500000
v 0.900000 3.507280 3.500000
v 0.700000 0.507280 3.553590
v 0.700000 3.507280 3.553590
v 0.553590 0.507280 3.700000
v 0.553590 3.507280 3.700000
v 0.500000 0.507280 3.900000
v 0.500000 3.507280 3.900000
v 0.553590 0.507280 4.100000
v 0.553590 3.507280 4.100000
v 0.700000 0.507280 4.246410
v 0.700000 3.507280 4.246410
v 1.124198 3.507280 4.288323
v 0.900000 3.507280 4.348397
v 1.288323 3.507280 4.124198
v 1.348397 3.507280 3.900000
v 1.288323 3.507280 3.675802
v 1.124198 3.507280 3.511677
v 0.900000 3.507280 3.451603
v 0.675802 3.507280 3.511677
v 0.511677 3.507280 3.675802
v 0.451603 3.507280 3.900000
v 0.511677 3.507280 4.124198
v 0.675801 3.507280 4.288322
v 1.124198 3.725420 4.288323
v 0.900000 3.725420 4.348397
v 1.288323 3.725420 4.124198
v 1.348397 3.725420 3.900000
v 1.288323 3.725420 3.675802
v 1.124198 3.725420 3.511677
v 0.900000 3.725420 3.451603
v 0.675802 3.725420 3.511677
v 0.511677 3.725420 3.675802
v 0.451603 3.725420 3.900000
v 0.511677 3.725420 4.124198
v 0.675801 3.725420 4.288322
v 0.000000 3.132280 3.800000
v 0.000000 3.132280 3.000000
v 0.000000 2.007280 3.000000
v 0.000000 3.382280 3.403158
v 0.000000 3.382280 3.163158
v 0.000000 3.031554 4.230548
v 0.000000 2.007280 4.230548
v 0.000000 0.882280 3.800000
v 0.000000 0.882280 3.000000
v 0.000000 0.632280 3.403158
v 0.000000 0.632280 3.163158
v 0.000000 0.983006 4.230548
v 0.000000 2.507280 4.000000
v 0.250000 2.440293 4.000000
v 0.433013 2.257280 4.000000
v 0.500000 2.007280 4.000000
v 0.433013 1.757280 4.000000
v 0.250000 1.574267 4.000000
v 0.000000 1.507280 4.000000
v -0.250000 1.574267 4.000000
v -0.433013 1.757280 4.000000
v -0.500000 2.007280 4.000000
v -0.433013 2.257280 4.000000
v -0.250000 2.440292 4.000000
v 0.000000 2.507280 4.500000
v 0.250000 2.440293 4.500000
v 0.433013 2.257280 4.500000
v 0.500000 2.007280 4.500000
v 0.433013 1.757280 4.500000
v 0.250000 1.574267 4.500000
v 0.000000 1.507280 4.500000
v -0.250000 1.574267 4.500000
v -0.433013 1.757280 4.500000
v -0.500000 2.007280 4.500000
v -0.433013 2.257280 4.500000
v -0.250000 2.440292 4.500000
v -0.000000 2.438475 4.500000
v 0.215597 2.380705 4.500000
v 0.373426 2.222877 4.500000
v 0.431195 2.007280 4.500000
v 0.373426 1.791682 4.500000
v 0.215597 1.633854 4.500000
v 0.000000 1.576085 4.500000
v -0.215597 1.633854 4.500000
v -0.373425 1.791682 4.500000
v -0.431195 2.007280 4.500000
v -0.373426 2.222877 4.500000
v -0.215598 2.380705 4.500000
v -0.000000 2.438475 4.408617
v 0.215597 2.380705 4.408617
v 0.373426 2.222877 4.408617
v 0.431195 2.007280 4.408617
v 0.373426 1.791682 4.408617
v 0.215597 1.633854 4.408617
v 0.000000 1.576085 4.408617
v -0.215597 1.633854 4.408617
v -0.373425 1.791682 4.408617
v -0.431195 2.007280 4.408617
v -0.373426 2.222877 4.408617
v -0.215598 2.380705 4.408617
v -0.000000 2.164199 4.408618
v 0.078460 2.143176 4.408618
v 0.135896 2.085739 4.408618
v 0.156919 2.007280 4.408618
v 0.135896 1.928820 4.408618
v 0.078460 1.871384 4.408618
v 0.000000 1.850361 4.408618
v -0.078460 1.871384 4.408618
v -0.135896 1.928820 4.408618
v -0.156919 2.007280 4.408618
v -0.135896 2.085739 4.408618
v -0.078460 2.143176 4.408618
v -0.000000 2.164199 4.558618
v 0.078460 2.143176 4.558618
v 0.135896 2.085739 4.558618
v 0.156919 2.007280 4.558618
v 0.135896 1.928820 4.558618
v 0.078460 1.871384 4.558618
v 0.000000 1.850361 4.558618
v -0.078460 1.871384 4.558618
v -0.135896 1.928820 4.558618
v -0.156919 2.007280 4.558618
v -0.135896 2.085739 4.558618
v -0.078460 2.143176 4.558618
v -0.000000 2.007280 4.558617
vt 0.093750 0.900000
vt 0.093750 0.900000
vt 0.093750 0.900000
vt 0.093750 0.900000
vt 0.093750 0.900000
vt 0.093750 0.900000
vt 0.093750 0.900000
vt 0.093750 0.900000
vt 0.093750 0.900000
vt 0.093750 0.900000
vt 0.093750 0.900000
vt 0.093750 0.900000
vt 0.093750 0.900000
vt 0.093750 0.900000
vt 0.093750 0.900000
vt 0.093750 0.900000
vt 0.093750 0.900000
vt 0.093750 0.900000
vt 0.093750 0.900000
vt 0.093750 0.900000
vt 0.093750 0.900000
vt 0.093750 0.900000
vt 0.468750 0.500000
vt 0.468750 0.500000
vt 0.468750 0.500000
vt 0.468750 0.500000
vt 0.468750 0.900000
vt 0.468750 0.900000
vt 0.468750 0.900000
vt 0.468750 0.900000
vt 0.468750 0.500000
vt 0.468750 0.500000
vt 0.468750 0.500000
vt 0.468750 0.500000
vt 0.468750 0.500000
vt 0.468750 0.500000
vt 0.468750 0.500000
vt 0.468750 0.500000
vt 0.468750 0.500000
vt 0.468750 0.500000
vt 0.468750 0.500000
vt 0.468750 0.500000
vt 0.468750 0.500000
vt 0.468750 0.500000
vt 0.468750 0.500000
vt 0.468750 0.500000
vt 0.468750 0.500000
vt 0.468750 0.500000
vt 0.468750 0.500000
vt 0.468750 0.500000
vt 0.468750 0.500000
vt 0.468750 0.500000
vt 0.468750 0.500000
vt 0.468750 0.500000
vt 0.843750 0.900000
vt 0.843750 0.900000
vt 0.843750 0.900000
vt 0.843750 0.900000
vt 0.843750 0.900000
vt 0.843750 0.900000
vt 0.843750 0.900000
vt 0.843750 0.900000
vt 0.843750 0.900000
vt 0.843750 0.900000
vt 0.843750 0.900000
vt 0.843750 0.900000
vt 0.843750 0.900000
vt 0.843750 0.900000
vt 0.843750 0.900000
vt 0.843750 0.900000
vt 0.843750 0.900000
vt 0.843750 0.900000
vt 0.843750 0.900000
vt 0.843750 0.900000
vt 0.843750 0.900000
vt 0.843750 0.900000
vt 0.843750 0.900000
vt 0.843750 0.900000
vt 0.843750 0.900000
vt 0.843750 0.900000
vt 0.843750 0.900000
vt 0.843750 0.900000
vt 0.843750 0.900000
vt 0.843750 0.900000
vt 0.843750 0.900000
vt 0.843750 0.900000
vt 0.843750 0.900000
vt 0.843750 0.900000
vt 0.843750 0.900000
vt 0.843750 0.900000
vt 0.843750 0.900000
vt 0.843750 0.900000
vt 0.843750 0.900000
vt 0.843750 0.900000
vt 0.843750 0.900000
vt 0.843750 0.900000
vt 0.843750 0.900000
vt 0.843750 0.900000
vt 0.843750 0.900000
vt 0.843750 0.900000
vt 0.843750 0.900000
vt 0.843750 0.900000
vt 0.093750 0.900000
vt 0.093750 0.900000
vt 0.093750 0.900000
vt 0.093750 0.900000
vt 0.093750 0.900000
vt 0.093750 0.900000
vt 0.093750 0.900000
vt 0.093750 0.900000
vt 0.093750 0.900000
vt 0.093750 0.900000
vt 0.093750 0.900000
vt 0.093750 0.900000
vt 0.093750 0.900000
vt 0.093750 0.900000
vt 0.093750 0.900000
vt 0.093750 0.900000
vt 0.468750 0.500000
vt 0.468750 0.500000
vt 0.468750 0.500000
vt 0.468750 0.500000
vt 0.468750 0.500000
vt 0.468750 0.500000
vt 0.468750 0.500000
vt 0.468750 0.500000
vt 0.468750 0.500000
vt 0.468750 0.500000
vt 0.468750 0.500000
vt 0.468750 0.500000
vt 0.468750 0.500000
vt 0.468750 0.500000
vt 0.468750 0.500000
vt 0.468750 0.500000
vt 0.468750 0.500000
vt 0.468750 0.500000
vt 0.468750 0.500000
vt 0.468750 0.500000
vt 0.283473 0.879284
vt 0.283469 0.879284
vt 0.283469 0.879308
vt 0.283473 0.879308
vt 0.283465 0.879284
vt 0.283465 0.879308
vt 0.283461 0.879284
vt 0.283461 0.879308
vt 0.283457 0.879284
vt 0.283457 0.879308
vt 0.283453 0.879284
vt 0.283453 0.879308
vt 0.283449 0.879284
vt 0.283449 0.879308
vt 0.283445 0.879284
vt 0.283445 0.879308
vt 0.283441 0.879284
vt 0.283441 0.879308
vt 0.283437 0.879284
vt 0.283437 0.879308
vt 0.283433 0.879284
vt 0.283433 0.879308
vt 0.283453 0.879308
vt 0.283457 0.879308
vt 0.283429 0.879284
vt 0.283429 0.879308
vt 0.283425 0.879284
vt 0.283425 0.879308
vt 0.283455 0.879282
vt 0.283451 0.879278
vt 0.283451 0.879267
vt 0.283455 0.879263
vt 0.283461 0.879261
vt 0.283449 0.879308
vt 0.283449 0.879308
vt 0.283453 0.879308
vt 0.283461 0.879308
vt 0.283425 0.879308
vt 0.283429 0.879308
vt 0.283469 0.879308
vt 0.283473 0.879308
vt 0.283465 0.879308
vt 0.283433 0.879308
vt 0.283437 0.879308
vt 0.283441 0.879308
vt 0.283445 0.879308
vt 0.283443 0.879282
vt 0.283447 0.879278
vt 0.283448 0.879272
vt 0.283447 0.879267
vt 0.283443 0.879263
vt 0.283431 0.879263
vt 0.283427 0.879267
vt 0.283426 0.879272
vt 0.283427 0.879278
vt 0.283431 0.879282
vt 0.283437 0.879284
vt 0.283461 0.879308
vt 0.283465 0.879308
vt 0.283457 0.879308
vt 0.283469 0.879308
vt 0.283473 0.879308
vt 0.156250 0.700000
vt 0.156250 0.700000
vt 0.156250 0.700000
vt 0.156250 0.700000
vt 0.156250 0.700000
vt 0.156250 0.700000
vt 0.156250 0.700000
vt 0.156250 0.700000
vt 0.156250 0.700000
vt 0.156250 0.700000
vt 0.156250 0.700000
vt 0.156250 0.700000
vt 0.156250 0.700000
vt 0.156250 0.700000
vt 0.156250 0.700000
vt 0.156250 0.700000
vt 0.156250 0.700000
vt 0.156250 0.700000
vt 0.156250 0.700000
vt 0.156250 0.700000
vt 0.156250 0.700000
vt 0.156250 0.700000
vt 0.156250 0.700000
vt 0.156250 0.700000
vt 0.156250 0.700000
vt 0.156250 0.700000
vt 0.156250 0.700000
vt 0.156250 0.700000
vt 0.156250 0.700000
vt 0.156250 0.700000
vt 0.156250 0.700000
vt 0.156250 0.700000
vt 0.156250 0.700000
vt 0.156250 0.700000
vt 0.156250 0.700000
vt 0.156250 0.700000
vt 0.156250 0.700000
vt 0.156250 0.700000
vt 0.156250 0.700000
vt 0.156250 0.700000
vt 0.156250 0.700000
vt 0.156250 0.700000
vt 0.156250 0.700000
vt 0.156250 0.700000
vt 0.156250 0.700000
vt 0.156250 0.700000
vt 0.156250 0.700000
vt 0.156250 0.700000
vt 0.156250 0.700000
vt 0.156250 0.700000
vt 0.156250 0.700000
vt 0.156250 0.700000
vt 0.156250 0.700000
vt 0.156250 0.700000
vt 0.156250 0.700000
vt 0.156250 0.700000
vt 0.156250 0.700000
vt 0.156250 0.700000
vt 0.156250 0.700000
vt 0.156250 0.700000
vt 0.156250 0.700000
vt 0.156250 0.700000
vt 0.156250 0.700000
vt 0.156250 0.700000
vt 0.156250 0.700000
vt 0.156250 0.700000
vt 0.156250 0.700000
vt 0.156250 0.700000
vt 0.156250 0.700000
vt 0.156250 0.700000
vt 0.156250 0.700000
vt 0.156250 0.700000
vt 0.156250 0.700000
vn -0.9363 0.0000 -0.3511
vn -0.6330 0.7052 -0.3195
vn 0.0000 0.5465 -0.8374
vn 0.0000 0.0000 1.0000
vn -0.8484 0.0000 0.5293
vn 0.0000 0.9737 0.2278
vn -0.6330 -0.7052 -0.3195
vn 0.0000 -0.5465 -0.8374
vn 0.0000 -0.9737 0.2278
vn -0.2588 0.0000 0.9659
vn -0.7071 0.0000 0.7071
vn -0.9659 0.0000 0.2588
vn -0.9659 0.0000 -0.2588
vn -0.7071 0.0000 -0.7071
vn -0.2588 0.0000 -0.9659
vn 0.0000 -1.0000 0.0000
vn 0.2588 0.0000 -0.9659
vn 0.7071 0.0000 -0.7071
vn 0.9659 0.0000 -0.2588
vn 0.9659 0.0000 0.2588
vn 0.7071 0.0000 0.7071
vn 0.2588 0.0000 0.9659
vn 0.0000 1.0000 -0.0000
vn 0.0000 -0.8461 0.5330
vn 0.0000 0.0000 -1.0000
vn 0.0000 0.8461 0.5330
vn 0.9363 0.0000 -0.3511
vn 0.6330 0.7052 -0.3195
vn 0.8484 0.0000 0.5293
vn 0.6330 -0.7052 -0.3195
vn 0.9659 -0.2588 0.0000
vn -0.7071 0.7071 0.0000
vn 0.2588 0.9659 0.0000
vn -0.7071 -0.7071 0.0000
vn 0.7071 -0.7071 0.0000
vn -0.2588 0.9659 0.0000
vn 0.7071 0.7071 0.0000
vn -0.9659 -0.2588 0.0000
vn 0.2588 -0.9659 0.0000
vn 0.9659 0.2588 0.0000
vn -0.9659 0.2588 0.0000
vn -0.2588 -0.9659 0.0000
s off
f 8/1/1 2/2/1 1/3/1 9/4/1
f 1/3/2 2/2/2 3/5/2 4/6/2
f 172/7/3 1/3/3 4/6/3 175/8/3
f 177/9/4 176/10/4 5/11/4 13/12/4
f 2/2/5 8/1/5 13/12/5 5/11/5
f 171/13/6 2/2/6 5/11/6 176/10/6
f 8/1/1 9/4/1 6/14/1 7/15/1
f 6/14/7 11/16/7 10/17/7 7/15/7
f 179/18/8 181/19/8 11/16/8 6/14/8
f 177/9/4 13/12/4 12/20/4 182/21/4
f 7/15/5 12/20/5 13/12/5 8/1/5
f 178/22/9 182/21/9 12/20/9 7/15/9
f 95/23/10 96/24/10 15/25/10 14/26/10
f 14/27/11 15/28/11 17/29/11 16/30/11
f 16/31/12 17/32/12 19/33/12 18/34/12
f 18/34/13 19/33/13 21/35/13 20/36/13
f 20/36/14 21/35/14 23/37/14 22/38/14
f 22/38/15 23/37/15 108/39/15 107/40/15
f 23/37/16 21/35/16 27/41/16 28/42/16
f 95/23/16 14/26/16 16/31/16 18/34/16 20/36/16 22/38/16 107/40/16
f 115/43/15 28/42/15 33/44/15 122/45/15
f 21/35/16 19/33/16 26/46/16 27/41/16
f 15/25/16 96/24/16 110/47/16 24/48/16
f 19/33/16 17/32/16 25/49/16 26/46/16
f 17/32/16 15/25/16 24/48/16 25/49/16
f 108/39/16 23/37/16 28/42/16 115/43/16
f 26/46/12 25/49/12 30/50/12 31/51/12
f 27/41/13 26/46/13 31/51/13 32/52/13
f 24/48/10 110/47/10 117/53/10 29/54/10
f 28/42/14 27/41/14 32/52/14 33/44/14
f 25/49/11 24/48/11 29/54/11 30/50/11
f 34/55/10 35/56/10 37/57/10 36/58/10
f 36/58/11 37/57/11 39/59/11 38/60/11
f 38/60/12 39/59/12 41/61/12 40/62/12
f 40/62/13 41/61/13 43/63/13 42/64/13
f 42/64/14 43/63/14 45/65/14 44/66/14
f 44/66/15 45/65/15 47/67/15 46/68/15
f 46/68/17 47/67/17 49/69/17 48/70/17
f 48/70/18 49/69/18 51/71/18 50/72/18
f 50/72/19 51/71/19 53/73/19 52/74/19
f 52/74/20 53/73/20 55/75/20 54/76/20
f 45/65/16 43/63/16 62/77/16 63/78/16
f 54/76/21 55/75/21 57/79/21 56/80/21
f 56/80/22 57/79/22 35/56/22 34/55/22
f 34/55/16 36/58/16 38/60/16 40/62/16 42/64/16 44/66/16 46/68/16 48/70/16 50/72/16 52/74/16 54/76/16 56/80/16
f 64/81/15 63/78/15 75/82/15 76/83/15
f 43/63/16 41/61/16 61/84/16 62/77/16
f 35/56/16 57/79/16 69/85/16 59/86/16
f 37/57/16 35/56/16 59/86/16 58/87/16
f 41/61/16 39/59/16 60/88/16 61/84/16
f 57/79/16 55/75/16 68/89/16 69/85/16
f 39/59/16 37/57/16 58/87/16 60/88/16
f 55/75/16 53/73/16 67/90/16 68/89/16
f 53/73/16 51/71/16 66/91/16 67/90/16
f 51/71/16 49/69/16 65/92/16 66/91/16
f 49/69/16 47/67/16 64/81/16 65/92/16
f 47/67/16 45/65/16 63/78/16 64/81/16
f 70/93/23 71/94/23 81/95/23 80/96/23 79/97/23 78/98/23 77/99/23 76/83/23 75/82/23 74/100/23 73/101/23 72/102/23
f 61/84/12 60/88/12 72/102/12 73/101/12
f 68/89/20 67/90/20 79/97/20 80/96/20
f 65/92/17 64/81/17 76/83/17 77/99/17
f 62/77/13 61/84/13 73/101/13 74/100/13
f 69/85/21 68/89/21 80/96/21 81/95/21
f 58/87/10 59/86/10 71/94/10 70/93/10
f 66/91/18 65/92/18 77/99/18 78/98/18
f 63/78/14 62/77/14 74/100/14 75/82/14
f 59/86/22 69/85/22 81/95/22 71/94/22
f 60/88/11 58/87/11 70/93/11 72/102/11
f 67/90/19 66/91/19 78/98/19 79/97/19
f 29/54/23 117/53/23 122/45/23 33/44/23 32/52/23 31/51/23 30/50/23
f 10/17/16 11/16/16 181/19/16 180/103/16
f 7/15/24 10/17/24 180/103/24 178/22/24
f 3/5/23 174/104/23 175/8/23 4/6/23
f 9/4/25 173/105/25 179/18/25 6/14/25
f 9/4/25 1/3/25 172/7/25 173/105/25
f 2/2/26 171/13/26 174/104/26 3/5/26
f 89/106/27 90/107/27 82/108/27 83/109/27
f 82/108/28 85/110/28 84/111/28 83/109/28
f 172/7/3 175/8/3 85/110/3 82/108/3
f 177/9/4 94/112/4 86/113/4 176/10/4
f 83/109/29 86/113/29 94/112/29 89/106/29
f 171/13/6 176/10/6 86/113/6 83/109/6
f 89/106/27 88/114/27 87/115/27 90/107/27
f 87/115/30 88/114/30 91/116/30 92/117/30
f 179/18/8 87/115/8 92/117/8 181/19/8
f 177/9/4 182/21/4 93/118/4 94/112/4
f 88/114/29 89/106/29 94/112/29 93/118/29
f 178/22/9 88/114/9 93/118/9 182/21/9
f 95/23/22 97/119/22 98/120/22 96/24/22
f 97/119/21 99/121/21 100/122/21 98/120/21
f 99/121/20 101/123/20 102/124/20 100/122/20
f 101/123/19 103/125/19 104/126/19 102/124/19
f 103/125/18 105/127/18 106/128/18 104/126/18
f 105/127/17 107/40/17 108/39/17 106/128/17
f 106/128/16 114/129/16 113/130/16 104/126/16
f 95/23/16 107/40/16 105/127/16 103/125/16 101/123/16 99/121/16 97/119/16
f 115/43/17 122/45/17 121/131/17 114/129/17
f 104/126/16 113/130/16 112/132/16 102/124/16
f 98/120/16 109/133/16 110/47/16 96/24/16
f 102/124/16 112/132/16 111/134/16 100/122/16
f 100/122/16 111/134/16 109/133/16 98/120/16
f 108/39/16 115/43/16 114/129/16 106/128/16
f 112/132/20 119/135/20 118/136/20 111/134/20
f 113/130/19 120/137/19 119/135/19 112/132/19
f 109/133/22 116/138/22 117/53/22 110/47/22
f 114/129/18 121/131/18 120/137/18 113/130/18
f 111/134/21 118/136/21 116/138/21 109/133/21
f 123/139/22 125/140/22 126/141/22 124/142/22
f 125/140/21 127/143/21 128/144/21 126/141/21
f 127/143/20 129/145/20 130/146/20 128/144/20
f 129/145/19 131/147/19 132/148/19 130/146/19
f 131/147/18 133/149/18 134/150/18 132/148/18
f 133/149/17 135/151/17 136/152/17 134/150/17
f 135/151/15 137/153/15 138/154/15 136/152/15
f 137/153/14 139/155/14 140/156/14 138/154/14
f 139/155/13 141/157/13 142/158/13 140/156/13
f 141/157/12 143/159/12 144/160/12 142/158/12
f 134/150/16 152/161/16 151/162/16 132/148/16
f 143/159/11 145/163/11 146/164/11 144/160/11
f 145/163/10 123/165/10 124/166/10 146/164/10
f 123/139/16 145/167/16 143/168/16 141/157/16 139/169/16 137/170/16 135/171/16 133/149/16 131/147/16 129/145/16 127/143/16 125/140/16
f 153/172/17 165/173/17 164/174/17 152/161/17
f 132/148/16 151/162/16 150/175/16 130/146/16
f 124/166/16 148/176/16 158/177/16 146/164/16
f 126/141/16 147/178/16 148/179/16 124/142/16
f 130/146/16 150/175/16 149/180/16 128/144/16
f 146/164/16 158/177/16 157/181/16 144/160/16
f 128/144/16 149/180/16 147/178/16 126/141/16
f 144/160/16 157/181/16 156/182/16 142/158/16
f 142/158/16 156/182/16 155/183/16 140/156/16
f 140/156/16 155/183/16 154/184/16 138/154/16
f 138/154/16 154/184/16 153/172/16 136/152/16
f 136/152/16 153/172/16 152/161/16 134/150/16
f 159/185/23 161/186/23 162/187/23 163/188/23 164/189/23 165/173/23 166/190/23 167/191/23 168/192/23 169/193/23 170/194/23 160/195/23
f 150/175/20 162/196/20 161/197/20 149/180/20
f 157/181/12 169/193/12 168/192/12 156/182/12
f 154/184/15 166/190/15 165/173/15 153/172/15
f 151/162/19 163/198/19 162/196/19 150/175/19
f 158/177/11 170/194/11 169/193/11 157/181/11
f 147/178/22 159/199/22 160/200/22 148/179/22
f 155/183/14 167/191/14 166/190/14 154/184/14
f 152/161/18 164/174/18 163/198/18 151/162/18
f 148/176/10 160/195/10 170/194/10 158/177/10
f 149/180/21 161/197/21 159/199/21 147/178/21
f 156/182/13 168/192/13 167/191/13 155/183/13
f 116/138/23 118/136/23 119/135/23 120/137/23 121/131/23 122/45/23 117/53/23
f 91/116/16 180/103/16 181/19/16 92/117/16
f 88/114/24 178/22/24 180/103/24 91/116/24
f 84/111/23 85/110/23 175/8/23 174/104/23
f 90/107/25 87/115/25 179/18/25 173/105/25
f 90/107/25 173/105/25 172/7/25 82/108/25
f 83/109/26 84/111/26 174/104/26 171/13/26
f 187/201/31 186/202/31 198/203/31 199/204/31
f 194/205/32 193/206/32 205/207/32 206/208/32
f 184/209/33 183/210/33 195/211/33 196/212/33
f 191/213/34 190/214/34 202/215/34 203/216/34
f 188/217/35 187/201/35 199/204/35 200/218/35
f 183/210/36 194/205/36 206/208/36 195/211/36
f 185/219/37 184/209/37 196/212/37 197/220/37
f 192/221/38 191/213/38 203/216/38 204/222/38
f 189/223/39 188/217/39 200/218/39 201/224/39
f 186/202/40 185/219/40 197/220/40 198/203/40
f 193/206/41 192/221/41 204/222/41 205/207/41
f 190/214/42 189/223/42 201/224/42 202/215/42
f 197/220/4 196/212/4 208/225/4 209/226/4
f 204/222/4 203/216/4 215/227/4 216/228/4
f 201/224/4 200/218/4 212/229/4 213/230/4
f 198/203/4 197/220/4 209/226/4 210/231/4
f 205/207/4 204/222/4 216/228/4 217/232/4
f 202/215/4 201/224/4 213/230/4 214/233/4
f 199/204/4 198/203/4 210/231/4 211/234/4
f 206/208/4 205/207/4 217/232/4 218/235/4
f 196/212/4 195/211/4 207/236/4 208/225/4
f 203/216/4 202/215/4 214/233/4 215/227/4
f 200/218/4 199/204/4 211/234/4 212/229/4
f 195/211/4 206/208/4 218/235/4 207/236/4
f 207/236/39 218/235/39 230/237/39 219/238/39
f 209/226/34 208/225/34 220/239/34 221/240/34
f 216/228/40 215/227/40 227/241/40 228/242/40
f 213/230/36 212/229/36 224/243/36 225/244/36
f 210/231/38 209/226/38 221/240/38 222/245/38
f 217/232/31 216/228/31 228/242/31 229/246/31
f 214/233/33 213/230/33 225/244/33 226/247/33
f 211/234/41 210/231/41 222/245/41 223/248/41
f 218/235/35 217/232/35 229/246/35 230/237/35
f 208/225/42 207/236/42 219/238/42 220/239/42
f 215/227/37 214/233/37 226/247/37 227/241/37
f 212/229/32 211/234/32 223/248/32 224/243/32
f 224/243/4 223/248/4 235/249/4 236/250/4
f 219/238/4 230/237/4 242/251/4 231/252/4
f 221/240/4 220/239/4 232/253/4 233/254/4
f 228/242/4 227/241/4 239/255/4 240/256/4
f 225/244/4 224/243/4 236/250/4 237/257/4
f 222/245/4 221/240/4 233/254/4 234/258/4
f 229/246/4 228/242/4 240/256/4 241/259/4
f 226/247/4 225/244/4 237/257/4 238/260/4
f 223/248/4 222/245/4 234/258/4 235/249/4
f 230/237/4 229/246/4 241/259/4 242/251/4
f 220/239/4 219/238/4 231/252/4 232/253/4
f 227/241/4 226/247/4 238/260/4 239/255/4
f 236/250/35 235/249/35 247/261/35 248/262/35
f 231/252/36 242/251/36 254/263/36 243/264/36
f 233/254/37 232/253/37 244/265/37 245/266/37
f 240/256/38 239/255/38 251/267/38 252/268/38
f 237/257/39 236/250/39 248/262/39 249/269/39
f 234/258/40 233/254/40 245/266/40 246/270/40
f 241/259/41 240/256/41 252/268/41 253/271/41
f 238/260/42 237/257/42 249/269/42 250/272/42
f 235/249/31 234/258/31 246/270/31 247/261/31
f 242/251/32 241/259/32 253/271/32 254/263/32
f 232/253/33 231/252/33 243/264/33 244/265/33
f 239/255/34 238/260/34 250/272/34 251/267/34
f 251/267/4 250/272/4 255/273/4
f 248/262/4 247/261/4 255/273/4
f 243/264/4 254/263/4 255/273/4
f 245/266/4 244/265/4 255/273/4
f 252/268/4 251/267/4 255/273/4
f 249/269/4 248/262/4 255/273/4
f 246/270/4 245/266/4 255/273/4
f 253/271/4 252/268/4 255/273/4
f 250/272/4 249/269/4 255/273/4
f 247/261/4 246/270/4 255/273/4
f 254/263/4 253/271/4 255/273/4
f 244/265/4 243/264/4 255/273/4
