# Blender v2.80 (sub 75) OBJ File: 'Structures.blend'
# www.blender.org
o Table_Cube.011
v -0.400000 0.370003 0.400000
v -0.400000 0.370003 0.200000
v -0.200000 0.370003 0.400000
v -0.200000 0.370003 0.200000
v -0.333070 0.354962 0.266930
v -0.333070 0.354962 0.333070
v -0.266930 0.354962 0.333070
v -0.266930 0.354962 0.266930
v -0.333070 -0.012726 0.266930
v -0.333070 -0.012726 0.333070
v -0.266930 -0.012726 0.333070
v -0.266930 -0.012726 0.266930
v -0.390585 0.400000 0.390585
v -0.400000 0.390585 0.400000
v 0.400000 0.370003 0.400000
v 0.000000 0.370003 0.400000
v 0.400000 0.370003 0.200000
v 0.200000 0.370003 0.400000
v 0.000000 0.370003 0.200000
v 0.200000 0.370003 0.200000
v 0.333070 0.354962 0.266930
v 0.333070 0.354962 0.333070
v 0.266930 0.354962 0.333070
v 0.266930 0.354962 0.266930
v 0.333070 -0.012726 0.266930
v 0.333070 -0.012726 0.333070
v 0.266930 -0.012726 0.333070
v 0.266930 -0.012726 0.266930
v 0.390585 0.400000 0.390585
v 0.400000 0.390585 0.400000
v 0.000000 0.400000 0.390585
v 0.000000 0.390585 0.400000
v -0.400000 0.370003 -0.400000
v -0.400000 0.370003 0.000000
v -0.400000 0.370003 -0.200000
v -0.200000 0.370003 -0.400000
v -0.200000 0.370003 0.000000
v -0.200000 0.370003 -0.200000
v -0.333070 0.354962 -0.266930
v -0.333070 0.354962 -0.333070
v -0.266930 0.354962 -0.333070
v -0.266930 0.354962 -0.266930
v -0.333070 -0.012726 -0.266930
v -0.333070 -0.012726 -0.333070
v -0.266930 -0.012726 -0.333070
v -0.266930 -0.012726 -0.266930
v -0.390585 0.400000 -0.390585
v -0.400000 0.390585 -0.400000
v -0.400000 0.390585 0.000000
v -0.390585 0.400000 0.000000
v 0.400000 0.370003 -0.400000
v 0.000000 0.370003 -0.400000
v 0.400000 0.370003 0.000000
v 0.000000 0.400000 0.000000
v 0.000000 0.370003 0.000000
v 0.400000 0.370003 -0.200000
v 0.200000 0.370003 -0.400000
v 0.000000 0.370003 -0.200000
v 0.200000 0.370003 0.000000
v 0.200000 0.370003 -0.200000
v 0.333070 0.354962 -0.266930
v 0.333070 0.354962 -0.333070
v 0.266930 0.354962 -0.333070
v 0.266930 0.354962 -0.266930
v 0.333070 -0.012726 -0.266930
v 0.333070 -0.012726 -0.333070
v 0.266930 -0.012726 -0.333070
v 0.266930 -0.012726 -0.266930
v 0.390585 0.400000 -0.390585
v 0.400000 0.390585 -0.400000
v 0.000000 0.400000 -0.390585
v 0.000000 0.390585 -0.400000
v 0.400000 0.390585 0.000000
v 0.390585 0.400000 0.000000
vt 0.093750 0.700000
vt 0.093750 0.700000
vt 0.093750 0.700000
vt 0.093750 0.700000
vt 0.093750 0.700000
vt 0.093750 0.700000
vt 0.093750 0.700000
vt 0.093750 0.700000
vt 0.093750 0.700000
vt 0.093750 0.700000
vt 0.093750 0.700000
vt 0.093750 0.700000
vt 0.093750 0.700000
vt 0.093750 0.700000
vt 0.093750 0.700000
vt 0.093750 0.700000
vt 0.093750 0.700000
vt 0.093750 0.700000
vt 0.093750 0.700000
vt 0.093750 0.700000
vt 0.093750 0.700000
vt 0.093750 0.700000
vt 0.093750 0.700000
vt 0.093750 0.700000
vt 0.093750 0.700000
vt 0.093750 0.700000
vt 0.093750 0.700000
vt 0.093750 0.700000
vt 0.093750 0.700000
vt 0.093750 0.700000
vt 0.093750 0.700000
vt 0.093750 0.700000
vt 0.093750 0.700000
vt 0.093750 0.700000
vt 0.093750 0.700000
vt 0.093750 0.700000
vt 0.093750 0.700000
vt 0.093750 0.700000
vt 0.093750 0.700000
vt 0.093750 0.700000
vt 0.093750 0.700000
vt 0.093750 0.700000
vt 0.093750 0.700000
vt 0.093750 0.700000
vt 0.093750 0.700000
vt 0.093750 0.700000
vt 0.093750 0.700000
vt 0.093750 0.700000
vt 0.093750 0.700000
vt 0.093750 0.700000
vt 0.093750 0.700000
vt 0.093750 0.700000
vt 0.093750 0.700000
vt 0.093750 0.700000
vt 0.093750 0.700000
vt 0.093750 0.700000
vt 0.093750 0.700000
vt 0.093750 0.700000
vt 0.093750 0.700000
vt 0.093750 0.700000
vt 0.093750 0.700000
vt 0.093750 0.700000
vt 0.093750 0.700000
vt 0.093750 0.700000
vt 0.093750 0.700000
vt 0.093750 0.700000
vt 0.093750 0.700000
vt 0.093750 0.700000
vt 0.093750 0.700000
vt 0.093750 0.700000
vt 0.093750 0.700000
vt 0.093750 0.700000
vt 0.093750 0.700000
vt 0.093750 0.700000
vn -1.0000 0.0000 0.0000
vn 0.0000 0.0000 1.0000
vn 0.0000 -1.0000 0.0000
vn 0.2193 -0.9757 0.0000
vn 1.0000 0.0000 0.0000
vn 0.0000 -0.9757 0.2193
vn -0.2193 -0.9757 0.0000
vn 0.0000 -0.9757 -0.2193
vn 0.0000 0.0000 -1.0000
vn 0.0000 0.7071 0.7071
vn -0.7071 0.7071 0.0000
vn 0.0000 1.0000 0.0000
vn 0.7071 0.7071 0.0000
vn 0.0000 0.7071 -0.7071
s off
f 1/1/1 14/2/1 49/3/1 34/4/1 2/5/1
f 16/6/2 32/7/2 14/2/2 1/1/2 3/8/2
f 4/9/3 2/5/3 34/4/3 37/10/3
f 19/11/3 4/9/3 37/10/3 55/12/3
f 16/6/3 3/8/3 4/9/3 19/11/3
f 4/9/4 3/8/4 7/13/4 8/14/4
f 8/14/5 7/13/5 11/15/5 12/16/5
f 3/8/6 1/1/6 6/17/6 7/13/6
f 1/1/7 2/5/7 5/18/7 6/17/7
f 2/5/8 4/9/8 8/14/8 5/18/8
f 11/15/3 10/19/3 9/20/3 12/16/3
f 6/17/1 5/18/1 9/20/1 10/19/1
f 5/18/9 8/14/9 12/16/9 9/20/9
f 7/13/2 6/17/2 10/19/2 11/15/2
f 31/21/10 13/22/10 14/2/10 32/7/10
f 13/22/11 50/23/11 49/3/11 14/2/11
f 13/22/12 31/21/12 54/24/12 50/23/12
f 15/25/5 17/26/5 53/27/5 73/28/5 30/29/5
f 16/6/2 18/30/2 15/25/2 30/29/2 32/7/2
f 20/31/3 59/32/3 53/27/3 17/26/3
f 19/11/3 55/12/3 59/32/3 20/31/3
f 16/6/3 19/11/3 20/31/3 18/30/3
f 20/31/7 24/33/7 23/34/7 18/30/7
f 24/33/1 28/35/1 27/36/1 23/34/1
f 18/30/6 23/34/6 22/37/6 15/25/6
f 15/25/4 22/37/4 21/38/4 17/26/4
f 17/26/8 21/38/8 24/33/8 20/31/8
f 27/36/3 28/35/3 25/39/3 26/40/3
f 22/37/5 26/40/5 25/39/5 21/38/5
f 21/38/9 25/39/9 28/35/9 24/33/9
f 23/34/2 27/36/2 26/40/2 22/37/2
f 31/21/10 32/7/10 30/29/10 29/41/10
f 29/41/13 30/29/13 73/28/13 74/42/13
f 29/41/12 74/42/12 54/24/12 31/21/12
f 33/43/1 35/44/1 34/4/1 49/3/1 48/45/1
f 52/46/9 36/47/9 33/43/9 48/45/9 72/48/9
f 38/49/3 37/10/3 34/4/3 35/44/3
f 58/50/3 55/12/3 37/10/3 38/49/3
f 52/46/3 58/50/3 38/49/3 36/47/3
f 38/49/4 42/51/4 41/52/4 36/47/4
f 42/51/5 46/53/5 45/54/5 41/52/5
f 36/47/8 41/52/8 40/55/8 33/43/8
f 33/43/7 40/55/7 39/56/7 35/44/7
f 35/44/6 39/56/6 42/51/6 38/49/6
f 45/54/3 46/53/3 43/57/3 44/58/3
f 40/55/1 44/58/1 43/57/1 39/56/1
f 39/56/2 43/57/2 46/53/2 42/51/2
f 41/52/9 45/54/9 44/58/9 40/55/9
f 71/59/14 72/48/14 48/45/14 47/60/14
f 47/60/11 48/45/11 49/3/11 50/23/11
f 47/60/12 50/23/12 54/24/12 71/59/12
f 51/61/5 70/62/5 73/28/5 53/27/5 56/63/5
f 52/46/9 72/48/9 70/62/9 51/61/9 57/64/9
f 60/65/3 56/63/3 53/27/3 59/32/3
f 58/50/3 60/65/3 59/32/3 55/12/3
f 52/46/3 57/64/3 60/65/3 58/50/3
f 60/65/7 57/64/7 63/66/7 64/67/7
f 64/67/1 63/66/1 67/68/1 68/69/1
f 57/64/8 51/61/8 62/70/8 63/66/8
f 51/61/4 56/63/4 61/71/4 62/70/4
f 56/63/6 60/65/6 64/67/6 61/71/6
f 67/68/3 66/72/3 65/73/3 68/69/3
f 62/70/5 61/71/5 65/73/5 66/72/5
f 61/71/2 64/67/2 68/69/2 65/73/2
f 63/66/9 62/70/9 66/72/9 67/68/9
f 71/59/14 69/74/14 70/62/14 72/48/14
f 69/74/13 74/42/13 73/28/13 70/62/13
f 69/74/12 71/59/12 54/24/12 74/42/12
