# Blender v2.80 (sub 75) OBJ File: 'Structures.blend'
# www.blender.org
o Port.001_Cube.006
v 0.000000 0.500000 1.201644
v 0.250000 0.433013 1.201644
v 0.433013 0.250000 1.201644
v 0.500000 0.000000 1.201644
v 0.433013 -0.250000 1.201644
v 0.250000 -0.433012 1.201644
v 0.000000 -0.500000 1.201644
v -0.250000 -0.433012 1.201644
v -0.433013 -0.250000 1.201644
v -0.500000 0.000000 1.201644
v -0.433013 0.250000 1.201644
v -0.250000 0.433013 1.201644
v 0.000000 0.500000 1.701644
v 0.250000 0.433013 1.701644
v 0.433013 0.250000 1.701644
v 0.500000 0.000000 1.701644
v 0.433013 -0.250000 1.701644
v 0.250000 -0.433012 1.701644
v 0.000000 -0.500000 1.701644
v -0.250000 -0.433012 1.701644
v -0.433013 -0.250000 1.701644
v -0.500000 0.000000 1.701644
v -0.433013 0.250000 1.701644
v -0.250000 0.433013 1.701644
v 0.000000 0.431195 1.701644
v 0.215597 0.373426 1.701644
v 0.373426 0.215598 1.701644
v 0.431195 0.000000 1.701644
v 0.373426 -0.215597 1.701644
v 0.215597 -0.373425 1.701644
v 0.000000 -0.431194 1.701644
v -0.215597 -0.373425 1.701644
v -0.373425 -0.215597 1.701644
v -0.431195 0.000000 1.701644
v -0.373426 0.215598 1.701644
v -0.215598 0.373426 1.701644
v 0.000000 0.431195 1.610261
v 0.215597 0.373426 1.610261
v 0.373426 0.215598 1.610261
v 0.431195 0.000000 1.610261
v 0.373426 -0.215597 1.610261
v 0.215597 -0.373425 1.610261
v 0.000000 -0.431194 1.610261
v -0.215597 -0.373425 1.610261
v -0.373425 -0.215597 1.610261
v -0.431195 0.000000 1.610261
v -0.373426 0.215598 1.610261
v -0.215598 0.373426 1.610261
v 0.000000 0.261090 1.642890
v 0.130545 0.226111 1.642890
v 0.226111 0.130545 1.642890
v 0.261090 0.000000 1.642890
v 0.226111 -0.130545 1.642890
v 0.130545 -0.226110 1.642890
v 0.000000 -0.261090 1.642890
v -0.130545 -0.226110 1.642890
v -0.226111 -0.130545 1.642890
v -0.261090 0.000000 1.642890
v -0.226111 0.130545 1.642890
v -0.130545 0.226111 1.642890
v 0.000000 0.261090 1.730143
v 0.130545 0.226111 1.730143
v 0.226111 0.130545 1.730143
v 0.261090 0.000000 1.730143
v 0.226111 -0.130545 1.730143
v 0.130545 -0.226110 1.730143
v 0.000000 -0.261090 1.730143
v -0.130545 -0.226110 1.730143
v -0.226111 -0.130545 1.730143
v -0.261090 0.000000 1.730143
v -0.226111 0.130545 1.730143
v -0.130545 0.226111 1.730143
v 0.000000 0.000000 1.730143
vt 0.156250 0.700000
vt 0.156250 0.700000
vt 0.156250 0.700000
vt 0.156250 0.700000
vt 0.156250 0.700000
vt 0.156250 0.700000
vt 0.156250 0.700000
vt 0.156250 0.700000
vt 0.156250 0.700000
vt 0.156250 0.700000
vt 0.156250 0.700000
vt 0.156250 0.700000
vt 0.156250 0.700000
vt 0.156250 0.700000
vt 0.156250 0.700000
vt 0.156250 0.700000
vt 0.156250 0.700000
vt 0.156250 0.700000
vt 0.156250 0.700000
vt 0.156250 0.700000
vt 0.156250 0.700000
vt 0.156250 0.700000
vt 0.156250 0.700000
vt 0.156250 0.700000
vt 0.156250 0.700000
vt 0.156250 0.700000
vt 0.156250 0.700000
vt 0.156250 0.700000
vt 0.156250 0.700000
vt 0.156250 0.700000
vt 0.156250 0.700000
vt 0.156250 0.700000
vt 0.156250 0.700000
vt 0.156250 0.700000
vt 0.156250 0.700000
vt 0.156250 0.700000
vt 0.156250 0.700000
vt 0.156250 0.700000
vt 0.156250 0.700000
vt 0.156250 0.700000
vt 0.156250 0.700000
vt 0.156250 0.700000
vt 0.156250 0.700000
vt 0.156250 0.700000
vt 0.156250 0.700000
vt 0.156250 0.700000
vt 0.156250 0.700000
vt 0.156250 0.700000
vt 0.031250 0.100000
vt 0.031250 0.100000
vt 0.031250 0.100000
vt 0.031250 0.100000
vt 0.031250 0.100000
vt 0.031250 0.100000
vt 0.031250 0.100000
vt 0.031250 0.100000
vt 0.031250 0.100000
vt 0.031250 0.100000
vt 0.031250 0.100000
vt 0.031250 0.100000
vt 0.031250 0.100000
vt 0.031250 0.100000
vt 0.031250 0.100000
vt 0.031250 0.100000
vt 0.031250 0.100000
vt 0.031250 0.100000
vt 0.031250 0.100000
vt 0.031250 0.100000
vt 0.031250 0.100000
vt 0.031250 0.100000
vt 0.031250 0.100000
vt 0.031250 0.100000
vt 0.156250 0.900000
vt 0.156250 0.900000
vt 0.156250 0.900000
vt 0.156250 0.900000
vt 0.156250 0.900000
vt 0.156250 0.900000
vt 0.156250 0.900000
vt 0.156250 0.900000
vt 0.156250 0.900000
vt 0.156250 0.900000
vt 0.156250 0.900000
vt 0.156250 0.900000
vt 0.156250 0.900000
vt 0.156250 0.900000
vt 0.156250 0.900000
vt 0.156250 0.900000
vt 0.156250 0.900000
vt 0.156250 0.900000
vt 0.156250 0.900000
vt 0.156250 0.900000
vt 0.156250 0.900000
vt 0.156250 0.900000
vt 0.156250 0.900000
vt 0.156250 0.900000
vt 0.156250 0.900000
vn 0.9659 -0.2588 0.0000
vn -0.7071 0.7071 0.0000
vn 0.2588 0.9659 0.0000
vn -0.7071 -0.7071 0.0000
vn 0.7071 -0.7071 0.0000
vn -0.2588 0.9659 0.0000
vn 0.7071 0.7071 0.0000
vn -0.9659 -0.2588 0.0000
vn 0.2588 -0.9659 0.0000
vn 0.9659 0.2588 0.0000
vn -0.9659 0.2588 0.0000
vn -0.2588 -0.9659 0.0000
vn 0.0000 0.0000 1.0000
vn 0.1377 -0.1377 0.9808
vn -0.0504 0.1881 0.9808
vn 0.1377 0.1377 0.9808
vn -0.1881 -0.0504 0.9808
vn 0.0504 -0.1881 0.9808
vn 0.1881 0.0504 0.9808
vn -0.1881 0.0504 0.9808
vn -0.0504 -0.1881 0.9808
vn 0.1881 -0.0504 0.9808
vn -0.1377 0.1377 0.9808
vn 0.0504 0.1881 0.9808
vn -0.1377 -0.1377 0.9808
s off
f 5/1/1 4/2/1 16/3/1 17/4/1
f 12/5/2 11/6/2 23/7/2 24/8/2
f 2/9/3 1/10/3 13/11/3 14/12/3
f 9/13/4 8/14/4 20/15/4 21/16/4
f 6/17/5 5/1/5 17/4/5 18/18/5
f 1/10/6 12/5/6 24/8/6 13/11/6
f 3/19/7 2/9/7 14/12/7 15/20/7
f 10/21/8 9/13/8 21/16/8 22/22/8
f 7/23/9 6/17/9 18/18/9 19/24/9
f 4/2/10 3/19/10 15/20/10 16/3/10
f 11/6/11 10/21/11 22/22/11 23/7/11
f 8/14/12 7/23/12 19/24/12 20/15/12
f 15/20/13 14/12/13 26/25/13 27/26/13
f 22/22/13 21/16/13 33/27/13 34/28/13
f 19/24/13 18/18/13 30/29/13 31/30/13
f 16/3/13 15/20/13 27/26/13 28/31/13
f 23/7/13 22/22/13 34/28/13 35/32/13
f 20/15/13 19/24/13 31/30/13 32/33/13
f 17/4/13 16/3/13 28/31/13 29/34/13
f 24/8/13 23/7/13 35/32/13 36/35/13
f 14/12/13 13/11/13 25/36/13 26/25/13
f 21/16/13 20/15/13 32/33/13 33/27/13
f 18/18/13 17/4/13 29/34/13 30/29/13
f 13/11/13 24/8/13 36/35/13 25/36/13
f 25/36/9 36/35/9 48/37/9 37/38/9
f 27/26/4 26/25/4 38/39/4 39/40/4
f 34/28/10 33/27/10 45/41/10 46/42/10
f 31/30/6 30/29/6 42/43/6 43/44/6
f 28/31/8 27/26/8 39/40/8 40/45/8
f 35/32/1 34/28/1 46/42/1 47/46/1
f 32/33/3 31/30/3 43/44/3 44/47/3
f 29/34/11 28/31/11 40/45/11 41/48/11
f 36/35/5 35/32/5 47/46/5 48/37/5
f 26/25/12 25/36/12 37/38/12 38/39/12
f 33/27/7 32/33/7 44/47/7 45/41/7
f 30/29/2 29/34/2 41/48/2 42/43/2
f 42/49/14 41/50/14 53/51/14 54/52/14
f 37/53/15 48/54/15 60/55/15 49/56/15
f 39/57/16 38/58/16 50/59/16 51/60/16
f 46/61/17 45/62/17 57/63/17 58/64/17
f 43/65/18 42/49/18 54/52/18 55/66/18
f 40/67/19 39/57/19 51/60/19 52/68/19
f 47/69/20 46/61/20 58/64/20 59/70/20
f 44/71/21 43/65/21 55/66/21 56/72/21
f 41/50/22 40/67/22 52/68/22 53/51/22
f 48/54/23 47/69/23 59/70/23 60/55/23
f 38/58/24 37/53/24 49/56/24 50/59/24
f 45/62/25 44/71/25 56/72/25 57/63/25
f 54/73/5 53/74/5 65/75/5 66/76/5
f 49/77/6 60/78/6 72/79/6 61/80/6
f 51/81/7 50/82/7 62/83/7 63/84/7
f 58/85/8 57/86/8 69/87/8 70/88/8
f 55/89/9 54/73/9 66/76/9 67/90/9
f 52/91/10 51/81/10 63/84/10 64/92/10
f 59/93/11 58/85/11 70/88/11 71/94/11
f 56/95/12 55/89/12 67/90/12 68/96/12
f 53/74/1 52/91/1 64/92/1 65/75/1
f 60/78/2 59/93/2 71/94/2 72/79/2
f 50/82/3 49/77/3 61/80/3 62/83/3
f 57/86/4 56/95/4 68/96/4 69/87/4
f 69/87/13 68/96/13 73/97/13
f 66/76/13 65/75/13 73/97/13
f 61/80/13 72/79/13 73/97/13
f 63/84/13 62/83/13 73/97/13
f 70/88/13 69/87/13 73/97/13
f 67/90/13 66/76/13 73/97/13
f 64/92/13 63/84/13 73/97/13
f 71/94/13 70/88/13 73/97/13
f 68/96/13 67/90/13 73/97/13
f 65/75/13 64/92/13 73/97/13
f 72/79/13 71/94/13 73/97/13
f 62/83/13 61/80/13 73/97/13
