# Blender v2.80 (sub 75) OBJ File: 'Structures.blend'
# www.blender.org
o Tubes_Cube.001
v -0.200000 0.507280 4.046410
v -0.200000 3.507280 4.046410
v -0.346410 0.507280 3.900000
v -0.346410 3.507280 3.900000
v -0.400000 0.507280 3.700000
v -0.400000 3.507280 3.700000
v -0.346410 0.507280 3.500000
v -0.346410 3.507280 3.500000
v -0.200000 0.507280 3.353590
v -0.200000 3.507280 3.353590
v -0.224198 3.507280 4.088323
v -0.388323 3.507280 3.924198
v -0.448397 3.507280 3.700000
v -0.388323 3.507280 3.475802
v -0.224198 3.507280 3.311677
v -0.224198 3.725420 4.088323
v -0.388323 3.725420 3.924198
v -0.448397 3.725420 3.700000
v -0.388323 3.725420 3.475802
v -0.224198 3.725420 3.311677
v -0.900000 0.507280 4.300000
v -0.900000 3.507280 4.300000
v -1.100000 0.507280 4.246410
v -1.100000 3.507280 4.246410
v -1.246410 0.507280 4.100000
v -1.246410 3.507280 4.100000
v -1.300000 0.507280 3.900000
v -1.300000 3.507280 3.900000
v -1.246410 0.507280 3.700000
v -1.246410 3.507280 3.700000
v -1.100000 0.507280 3.553590
v -1.100000 3.507280 3.553590
v -0.900000 0.507280 3.500000
v -0.900000 3.507280 3.500000
v -0.700000 0.507280 3.553590
v -0.700000 3.507280 3.553590
v -0.553590 0.507280 3.700000
v -0.553590 3.507280 3.700000
v -0.500000 0.507280 3.900000
v -0.500000 3.507280 3.900000
v -0.553590 0.507280 4.100000
v -0.553590 3.507280 4.100000
v -0.700000 0.507280 4.246410
v -0.700000 3.507280 4.246410
v -1.124198 3.507280 4.288323
v -0.900000 3.507280 4.348397
v -1.288323 3.507280 4.124198
v -1.348397 3.507280 3.900000
v -1.288323 3.507280 3.675802
v -1.124198 3.507280 3.511677
v -0.900000 3.507280 3.451603
v -0.675802 3.507280 3.511677
v -0.511677 3.507280 3.675802
v -0.451603 3.507280 3.900000
v -0.511677 3.507280 4.124198
v -0.675801 3.507280 4.288322
v -1.124198 3.725420 4.288323
v -0.900000 3.725420 4.348397
v -1.288323 3.725420 4.124198
v -1.348397 3.725420 3.900000
v -1.288323 3.725420 3.675802
v -1.124198 3.725420 3.511677
v -0.900000 3.725420 3.451603
v -0.675802 3.725420 3.511677
v -0.511677 3.725420 3.675802
v -0.451603 3.725420 3.900000
v -0.511677 3.725420 4.124198
v -0.675801 3.725420 4.288322
v 0.000000 0.507280 4.100000
v 0.000000 3.507280 4.100000
v 0.200000 0.507280 4.046410
v 0.200000 3.507280 4.046410
v 0.346410 0.507280 3.900000
v 0.346410 3.507280 3.900000
v 0.400000 0.507280 3.700000
v 0.400000 3.507280 3.700000
v 0.346410 0.507280 3.500000
v 0.346410 3.507280 3.500000
v 0.200000 0.507280 3.353590
v 0.200000 3.507280 3.353590
v 0.000000 0.507280 3.300000
v 0.000000 3.507280 3.300000
v 0.224198 3.507280 4.088323
v 0.000000 3.507280 4.148396
v 0.388323 3.507280 3.924198
v 0.448397 3.507280 3.700000
v 0.388323 3.507280 3.475802
v 0.224198 3.507280 3.311677
v 0.000000 3.507280 3.251603
v 0.224198 3.725420 4.088323
v 0.000000 3.725420 4.148396
v 0.388323 3.725420 3.924198
v 0.448397 3.725420 3.700000
v 0.388323 3.725420 3.475802
v 0.224198 3.725420 3.311677
v 0.000000 3.725420 3.251603
v 0.900000 0.507280 4.300000
v 0.900000 3.507280 4.300000
v 1.100000 0.507280 4.246410
v 1.100000 3.507280 4.246410
v 1.246410 0.507280 4.100000
v 1.246410 3.507280 4.100000
v 1.300000 0.507280 3.900000
v 1.300000 3.507280 3.900000
v 1.246410 0.507280 3.700000
v 1.246410 3.507280 3.700000
v 1.100000 0.507280 3.553590
v 1.100000 3.507280 3.553590
v 0.900000 0.507280 3.500000
v 0.900000 3.507280 3.500000
v 0.700000 0.507280 3.553590
v 0.700000 3.507280 3.553590
v 0.553590 0.507280 3.700000
v 0.553590 3.507280 3.700000
v 0.500000 0.507280 3.900000
v 0.500000 3.507280 3.900000
v 0.553590 0.507280 4.100000
v 0.553590 3.507280 4.100000
v 0.700000 0.507280 4.246410
v 0.700000 3.507280 4.246410
v 1.124198 3.507280 4.288323
v 0.900000 3.507280 4.348397
v 1.288323 3.507280 4.124198
v 1.348397 3.507280 3.900000
v 1.288323 3.507280 3.675802
v 1.124198 3.507280 3.511677
v 0.900000 3.507280 3.451603
v 0.675802 3.507280 3.511677
v 0.511677 3.507280 3.675802
v 0.451603 3.507280 3.900000
v 0.511677 3.507280 4.124198
v 0.675801 3.507280 4.288322
v 1.124198 3.725420 4.288323
v 0.900000 3.725420 4.348397
v 1.288323 3.725420 4.124198
v 1.348397 3.725420 3.900000
v 1.288323 3.725420 3.675802
v 1.124198 3.725420 3.511677
v 0.900000 3.725420 3.451603
v 0.675802 3.725420 3.511677
v 0.511677 3.725420 3.675802
v 0.451603 3.725420 3.900000
v 0.511677 3.725420 4.124198
v 0.675801 3.725420 4.288322
vt 0.468750 0.900000
vt 0.468750 0.900000
vt 0.468750 0.900000
vt 0.468750 0.900000
vt 0.468750 0.900000
vt 0.468750 0.900000
vt 0.468750 0.900000
vt 0.468750 0.900000
vt 0.468750 0.900000
vt 0.468750 0.900000
vt 0.468750 0.900000
vt 0.468750 0.900000
vt 0.468750 0.900000
vt 0.468750 0.900000
vt 0.468750 0.900000
vt 0.468750 0.900000
vt 0.468750 0.900000
vt 0.468750 0.900000
vt 0.468750 0.900000
vt 0.468750 0.900000
vt 0.468750 0.900000
vt 0.468750 0.900000
vt 0.468750 0.900000
vt 0.468750 0.900000
vt 0.468750 0.900000
vt 0.468750 0.900000
vt 0.468750 0.900000
vt 0.468750 0.900000
vt 0.843750 0.900000
vt 0.843750 0.900000
vt 0.843750 0.900000
vt 0.843750 0.900000
vt 0.843750 0.900000
vt 0.843750 0.900000
vt 0.843750 0.900000
vt 0.843750 0.900000
vt 0.843750 0.900000
vt 0.843750 0.900000
vt 0.843750 0.900000
vt 0.843750 0.900000
vt 0.843750 0.900000
vt 0.843750 0.900000
vt 0.843750 0.900000
vt 0.843750 0.900000
vt 0.843750 0.900000
vt 0.843750 0.900000
vt 0.843750 0.900000
vt 0.843750 0.900000
vt 0.843750 0.900000
vt 0.843750 0.900000
vt 0.843750 0.900000
vt 0.843750 0.900000
vt 0.843750 0.900000
vt 0.843750 0.900000
vt 0.843750 0.900000
vt 0.843750 0.900000
vt 0.843750 0.900000
vt 0.843750 0.900000
vt 0.843750 0.900000
vt 0.843750 0.900000
vt 0.843750 0.900000
vt 0.843750 0.900000
vt 0.843750 0.900000
vt 0.843750 0.900000
vt 0.843750 0.900000
vt 0.843750 0.900000
vt 0.843750 0.900000
vt 0.843750 0.900000
vt 0.843750 0.900000
vt 0.843750 0.900000
vt 0.843750 0.900000
vt 0.843750 0.900000
vt 0.843750 0.900000
vt 0.843750 0.900000
vt 0.843750 0.900000
vt 0.843750 0.900000
vt 0.468750 0.900000
vt 0.468750 0.900000
vt 0.468750 0.900000
vt 0.468750 0.900000
vt 0.468750 0.900000
vt 0.468750 0.900000
vt 0.468750 0.900000
vt 0.468750 0.900000
vt 0.468750 0.900000
vt 0.468750 0.900000
vt 0.468750 0.900000
vt 0.468750 0.900000
vt 0.468750 0.900000
vt 0.468750 0.900000
vt 0.468750 0.900000
vt 0.468750 0.900000
vt 0.468750 0.900000
vt 0.468750 0.900000
vt 0.468750 0.900000
vt 0.468750 0.900000
vt 0.281250 0.900000
vt 0.281250 0.900000
vt 0.281250 0.900000
vt 0.281250 0.900000
vt 0.281250 0.900000
vt 0.281250 0.900000
vt 0.281250 0.900000
vt 0.281250 0.900000
vt 0.281250 0.900000
vt 0.281250 0.900000
vt 0.281250 0.900000
vt 0.281250 0.900000
vt 0.281250 0.900000
vt 0.281250 0.900000
vt 0.281250 0.900000
vt 0.281250 0.900000
vt 0.281250 0.900000
vt 0.281250 0.900000
vt 0.281250 0.900000
vt 0.281250 0.900000
vt 0.281250 0.900000
vt 0.281250 0.900000
vt 0.281250 0.900000
vt 0.281250 0.900000
vt 0.281250 0.900000
vt 0.281250 0.900000
vt 0.281250 0.900000
vt 0.281250 0.900000
vt 0.281250 0.900000
vt 0.281250 0.900000
vt 0.281250 0.900000
vt 0.281250 0.900000
vt 0.281250 0.900000
vt 0.281250 0.900000
vt 0.281250 0.900000
vt 0.281250 0.900000
vt 0.281250 0.900000
vt 0.281250 0.900000
vt 0.281250 0.900000
vt 0.281250 0.900000
vt 0.281250 0.900000
vt 0.281250 0.900000
vt 0.281250 0.900000
vt 0.281250 0.900000
vt 0.281250 0.900000
vt 0.281250 0.900000
vt 0.281250 0.900000
vt 0.281250 0.900000
vn -0.2588 0.0000 0.9659
vn -0.7071 0.0000 0.7071
vn -0.9659 0.0000 0.2588
vn -0.9659 0.0000 -0.2588
vn -0.7071 0.0000 -0.7071
vn -0.2588 0.0000 -0.9659
vn 0.0000 -1.0000 0.0000
vn 0.2588 0.0000 -0.9659
vn 0.7071 0.0000 -0.7071
vn 0.9659 0.0000 -0.2588
vn 0.9659 0.0000 0.2588
vn 0.7071 0.0000 0.7071
vn 0.2588 0.0000 0.9659
vn 0.0000 1.0000 -0.0000
s off
f 69/1/1 70/2/1 2/3/1 1/4/1
f 1/4/2 2/3/2 4/5/2 3/6/2
f 3/6/3 4/5/3 6/7/3 5/8/3
f 5/8/4 6/7/4 8/9/4 7/10/4
f 7/10/5 8/9/5 10/11/5 9/12/5
f 9/12/6 10/11/6 82/13/6 81/14/6
f 10/11/7 8/9/7 14/15/7 15/16/7
f 69/1/7 1/4/7 3/6/7 5/8/7 7/10/7 9/12/7 81/14/7
f 89/17/6 15/16/6 20/18/6 96/19/6
f 8/9/7 6/7/7 13/20/7 14/15/7
f 2/3/7 70/2/7 84/21/7 11/22/7
f 6/7/7 4/5/7 12/23/7 13/20/7
f 4/5/7 2/3/7 11/22/7 12/23/7
f 82/13/7 10/11/7 15/16/7 89/17/7
f 13/20/3 12/23/3 17/24/3 18/25/3
f 14/15/4 13/20/4 18/25/4 19/26/4
f 11/22/1 84/21/1 91/27/1 16/28/1
f 15/16/5 14/15/5 19/26/5 20/18/5
f 12/23/2 11/22/2 16/28/2 17/24/2
f 21/29/1 22/30/1 24/31/1 23/32/1
f 23/32/2 24/31/2 26/33/2 25/34/2
f 25/34/3 26/33/3 28/35/3 27/36/3
f 27/36/4 28/35/4 30/37/4 29/38/4
f 29/38/5 30/37/5 32/39/5 31/40/5
f 31/40/6 32/39/6 34/41/6 33/42/6
f 33/42/8 34/41/8 36/43/8 35/44/8
f 35/44/9 36/43/9 38/45/9 37/46/9
f 37/46/10 38/45/10 40/47/10 39/48/10
f 39/48/11 40/47/11 42/49/11 41/50/11
f 32/39/7 30/37/7 49/51/7 50/52/7
f 41/50/12 42/49/12 44/53/12 43/54/12
f 43/54/13 44/53/13 22/30/13 21/29/13
f 21/29/7 23/32/7 25/34/7 27/36/7 29/38/7 31/40/7 33/42/7 35/44/7 37/46/7 39/48/7 41/50/7 43/54/7
f 51/55/6 50/52/6 62/56/6 63/57/6
f 30/37/7 28/35/7 48/58/7 49/51/7
f 22/30/7 44/53/7 56/59/7 46/60/7
f 24/31/7 22/30/7 46/60/7 45/61/7
f 28/35/7 26/33/7 47/62/7 48/58/7
f 44/53/7 42/49/7 55/63/7 56/59/7
f 26/33/7 24/31/7 45/61/7 47/62/7
f 42/49/7 40/47/7 54/64/7 55/63/7
f 40/47/7 38/45/7 53/65/7 54/64/7
f 38/45/7 36/43/7 52/66/7 53/65/7
f 36/43/7 34/41/7 51/55/7 52/66/7
f 34/41/7 32/39/7 50/52/7 51/55/7
f 57/67/14 58/68/14 68/69/14 67/70/14 66/71/14 65/72/14 64/73/14 63/57/14 62/56/14 61/74/14 60/75/14 59/76/14
f 48/58/3 47/62/3 59/76/3 60/75/3
f 55/63/11 54/64/11 66/71/11 67/70/11
f 52/66/8 51/55/8 63/57/8 64/73/8
f 49/51/4 48/58/4 60/75/4 61/74/4
f 56/59/12 55/63/12 67/70/12 68/69/12
f 45/61/1 46/60/1 58/68/1 57/67/1
f 53/65/9 52/66/9 64/73/9 65/72/9
f 50/52/5 49/51/5 61/74/5 62/56/5
f 46/60/13 56/59/13 68/69/13 58/68/13
f 47/62/2 45/61/2 57/67/2 59/76/2
f 54/64/10 53/65/10 65/72/10 66/71/10
f 16/28/14 91/27/14 96/19/14 20/18/14 19/26/14 18/25/14 17/24/14
f 69/1/13 71/77/13 72/78/13 70/2/13
f 71/77/12 73/79/12 74/80/12 72/78/12
f 73/79/11 75/81/11 76/82/11 74/80/11
f 75/81/10 77/83/10 78/84/10 76/82/10
f 77/83/9 79/85/9 80/86/9 78/84/9
f 79/85/8 81/14/8 82/13/8 80/86/8
f 80/86/7 88/87/7 87/88/7 78/84/7
f 69/1/7 81/14/7 79/85/7 77/83/7 75/81/7 73/79/7 71/77/7
f 89/17/8 96/19/8 95/89/8 88/87/8
f 78/84/7 87/88/7 86/90/7 76/82/7
f 72/78/7 83/91/7 84/21/7 70/2/7
f 76/82/7 86/90/7 85/92/7 74/80/7
f 74/80/7 85/92/7 83/91/7 72/78/7
f 82/13/7 89/17/7 88/87/7 80/86/7
f 86/90/11 93/93/11 92/94/11 85/92/11
f 87/88/10 94/95/10 93/93/10 86/90/10
f 83/91/13 90/96/13 91/27/13 84/21/13
f 88/87/9 95/89/9 94/95/9 87/88/9
f 85/92/12 92/94/12 90/96/12 83/91/12
f 97/97/13 99/98/13 100/99/13 98/100/13
f 99/98/12 101/101/12 102/102/12 100/99/12
f 101/101/11 103/103/11 104/104/11 102/102/11
f 103/103/10 105/105/10 106/106/10 104/104/10
f 105/105/9 107/107/9 108/108/9 106/106/9
f 107/107/8 109/109/8 110/110/8 108/108/8
f 109/109/6 111/111/6 112/112/6 110/110/6
f 111/111/5 113/113/5 114/114/5 112/112/5
f 113/113/4 115/115/4 116/116/4 114/114/4
f 115/115/3 117/117/3 118/118/3 116/116/3
f 108/108/7 126/119/7 125/120/7 106/106/7
f 117/117/2 119/121/2 120/122/2 118/118/2
f 119/121/1 97/97/1 98/100/1 120/122/1
f 97/97/7 119/121/7 117/117/7 115/115/7 113/113/7 111/111/7 109/109/7 107/107/7 105/105/7 103/103/7 101/101/7 99/98/7
f 127/123/8 139/124/8 138/125/8 126/119/8
f 106/106/7 125/120/7 124/126/7 104/104/7
f 98/100/7 122/127/7 132/128/7 120/122/7
f 100/99/7 121/129/7 122/127/7 98/100/7
f 104/104/7 124/126/7 123/130/7 102/102/7
f 120/122/7 132/128/7 131/131/7 118/118/7
f 102/102/7 123/130/7 121/129/7 100/99/7
f 118/118/7 131/131/7 130/132/7 116/116/7
f 116/116/7 130/132/7 129/133/7 114/114/7
f 114/114/7 129/133/7 128/134/7 112/112/7
f 112/112/7 128/134/7 127/123/7 110/110/7
f 110/110/7 127/123/7 126/119/7 108/108/7
f 133/135/14 135/136/14 136/137/14 137/138/14 138/125/14 139/124/14 140/139/14 141/140/14 142/141/14 143/142/14 144/143/14 134/144/14
f 124/126/11 136/137/11 135/136/11 123/130/11
f 131/131/3 143/142/3 142/141/3 130/132/3
f 128/134/6 140/139/6 139/124/6 127/123/6
f 125/120/10 137/138/10 136/137/10 124/126/10
f 132/128/2 144/143/2 143/142/2 131/131/2
f 121/129/13 133/135/13 134/144/13 122/127/13
f 129/133/5 141/140/5 140/139/5 128/134/5
f 126/119/9 138/125/9 137/138/9 125/120/9
f 122/127/1 134/144/1 144/143/1 132/128/1
f 123/130/12 135/136/12 133/135/12 121/129/12
f 130/132/4 142/141/4 141/140/4 129/133/4
f 90/96/14 92/94/14 93/93/14 94/95/14 95/89/14 96/19/14 91/27/14
